999
DXF created by VCGLib
0
SECTION
2
HEADER
9
$ACADVER
1
AC1009
9
$INSBASE
10
0.0
20
0.0
30
0.0
9
$EXTMIN
10
-1.000000
20
-1.000000
9
$EXTMAX
10
1.500000
20
1.500000
9
$LINMIN
10
-1.000000
20
-1.000000
9
$LINMAX
10
1.500000
20
1.500000
0
ENDSEC
0
SECTION
2
ENTITIES
0
3DFACE
8
0
10
-0.676604
20
0.403959
30
0.020284
11
-0.695456
21
0.413731
31
0.010771
12
-0.687603
22
0.389256
32
0.019835
13
-0.687603
23
0.389256
33
0.019835
0
3DFACE
8
0
10
-1.000000
20
0.000000
30
0.000000
11
-0.709723
21
0.359912
31
0.018876
12
-0.500000
22
0.750000
32
0.000000
13
-0.500000
23
0.750000
33
0.000000
0
3DFACE
8
0
10
-0.500000
20
0.750000
30
0.000000
11
-0.709723
21
0.359912
31
0.018876
12
-0.695456
22
0.413731
32
0.010771
13
-0.695456
23
0.413731
33
0.010771
0
3DFACE
8
0
10
-0.687603
20
0.389256
30
0.019835
11
-0.695456
21
0.413731
31
0.010771
12
-0.709723
22
0.359912
32
0.018876
13
-0.709723
23
0.359912
33
0.018876
0
3DFACE
8
0
10
-0.214774
20
1.102336
30
0.018876
11
-0.219575
21
1.130848
31
0.009947
12
-0.500000
22
0.750000
32
0.000000
13
-0.500000
23
0.750000
33
0.000000
0
3DFACE
8
0
10
-0.181384
20
1.187268
30
0.010164
11
-0.160902
21
1.196613
31
0.015509
12
-0.152066
22
1.212397
32
0.014876
13
-0.152066
23
1.212397
33
0.014876
0
3DFACE
8
0
10
-0.522431
20
0.673680
30
0.010668
11
-0.500000
21
0.750000
31
0.000000
12
-0.645664
22
0.482384
32
0.012280
13
-0.645664
23
0.482384
33
0.012280
0
3DFACE
8
0
10
-0.181384
20
1.187268
30
0.010164
11
-0.169779
21
1.180849
31
0.016121
12
-0.160902
22
1.196613
32
0.015509
13
-0.160902
23
1.196613
33
0.015509
0
3DFACE
8
0
10
-0.611468
20
0.492603
30
0.022549
11
-0.645664
21
0.482384
31
0.012280
12
-0.622222
22
0.477778
32
0.022222
13
-0.622222
23
0.477778
33
0.022222
0
3DFACE
8
0
10
-0.039355
20
1.362345
30
0.052091
11
-0.000000
21
1.500000
31
0.000000
12
-0.152066
22
1.212397
32
0.014876
13
-0.152066
23
1.212397
33
0.014876
0
3DFACE
8
0
10
0.000000
20
1.380828
30
0.091929
11
-0.039355
21
1.362345
31
0.052091
12
0.000000
22
1.369136
32
0.101235
13
0.000000
23
1.369136
33
0.101235
0
3DFACE
8
0
10
0.000000
20
1.416151
30
0.064136
11
-0.039355
21
1.362345
31
0.052091
12
0.000000
22
1.404336
32
0.073380
13
0.000000
23
1.404336
33
0.073380
0
3DFACE
8
0
10
-0.348758
20
0.921100
30
0.013941
11
-0.355882
21
0.869860
31
0.024079
12
-0.336537
22
0.900592
32
0.023651
13
-0.336537
23
0.900592
33
0.023651
0
3DFACE
8
0
10
-0.622222
20
0.477778
30
0.022222
11
-0.645664
21
0.482384
31
0.012280
12
-0.633017
22
0.462973
32
0.021875
13
-0.633017
23
0.462973
33
0.021875
0
3DFACE
8
0
10
-0.579451
20
0.537200
30
0.023406
11
-0.645664
21
0.482384
31
0.012280
12
-0.590083
22
0.522314
32
0.023140
13
-0.590083
23
0.522314
33
0.023140
0
3DFACE
8
0
10
-0.611468
20
0.194266
30
0.320886
11
-0.619442
21
0.236225
31
0.270175
12
-0.622222
22
0.188889
32
0.311111
13
-0.622222
23
0.188889
33
0.311111
0
3DFACE
8
0
10
-0.645664
20
0.482384
30
0.012280
11
-0.568860
21
0.552107
31
0.023651
12
-0.558310
22
0.567034
32
0.023875
13
-0.558310
23
0.567034
33
0.023875
0
3DFACE
8
0
10
-0.717358
20
0.231114
30
0.139830
11
-0.673555
21
0.254224
31
0.177500
12
-0.690292
22
0.284892
32
0.123632
13
-0.690292
23
0.284892
33
0.123632
0
3DFACE
8
0
10
-0.732476
20
0.184519
30
0.165117
11
-0.692413
21
0.204762
31
0.199867
12
-0.717358
22
0.231114
32
0.139830
13
-0.717358
23
0.231114
33
0.139830
0
3DFACE
8
0
10
-0.676604
20
0.161698
30
0.262545
11
-0.692413
21
0.204762
31
0.199867
12
-0.687603
22
0.156198
32
0.252893
13
-0.687603
23
0.156198
33
0.252893
0
3DFACE
8
0
10
0.000000
20
1.392562
30
0.082645
11
-0.039355
21
1.362345
31
0.052091
12
0.000000
22
1.380828
32
0.091929
13
0.000000
23
1.380828
33
0.091929
0
3DFACE
8
0
10
-0.033658
20
1.325670
30
0.089729
11
0.000000
21
1.369136
31
0.101235
12
-0.039355
22
1.362345
32
0.052091
13
-0.039355
23
1.362345
33
0.052091
0
3DFACE
8
0
10
0.000000
20
1.404336
30
0.073380
11
-0.039355
21
1.362345
31
0.052091
12
0.000000
22
1.392562
32
0.082645
13
0.000000
23
1.392562
33
0.082645
0
3DFACE
8
0
10
-0.039355
20
1.362345
30
0.052091
11
0.000000
21
1.416151
31
0.064136
12
-0.000000
22
1.500000
32
0.000000
13
-0.000000
23
1.500000
33
0.000000
0
3DFACE
8
0
10
-0.600755
20
0.507448
30
0.022855
11
-0.645664
21
0.482384
31
0.012280
12
-0.611468
22
0.492603
32
0.022549
13
-0.611468
23
0.492603
33
0.022549
0
3DFACE
8
0
10
-0.633017
20
0.462973
30
0.021875
11
-0.645664
21
0.482384
31
0.012280
12
-0.665646
22
0.418682
32
0.020712
13
-0.665646
23
0.418682
33
0.020712
0
3DFACE
8
0
10
-0.500000
20
0.750000
30
0.000000
11
-0.665646
21
0.418682
31
0.020712
12
-0.645664
22
0.482384
32
0.012280
13
-0.645664
23
0.482384
33
0.012280
0
3DFACE
8
0
10
-0.616292
20
0.434745
30
0.076289
11
-0.624394
21
0.395422
31
0.105163
12
-0.576099
22
0.437343
32
0.132792
13
-0.576099
23
0.437343
33
0.132792
0
3DFACE
8
0
10
0.000000
20
0.532650
30
0.955719
11
-0.024426
21
0.487787
31
0.966758
12
0.000000
22
0.524426
32
0.966758
13
0.000000
23
0.524426
33
0.966758
0
3DFACE
8
0
10
0.000000
20
0.508101
30
0.988899
11
-0.008101
21
0.495949
31
0.988899
12
0.000000
22
0.500000
32
1.000000
13
0.000000
23
0.500000
33
1.000000
0
3DFACE
8
0
10
-0.242261
20
0.378870
30
0.696888
11
-0.212692
21
0.452434
31
0.670224
12
-0.245523
22
0.428333
32
0.641545
13
-0.245523
23
0.428333
33
0.641545
0
3DFACE
8
0
10
-0.270115
20
0.364942
30
0.665361
11
-0.281270
21
0.407472
31
0.605312
12
-0.279482
22
0.360259
32
0.654892
13
-0.279482
23
0.360259
33
0.654892
0
3DFACE
8
0
10
-0.568860
20
0.552107
30
0.023651
11
-0.645664
21
0.482384
31
0.012280
12
-0.579451
22
0.537200
32
0.023406
13
-0.579451
23
0.537200
33
0.023406
0
3DFACE
8
0
10
-0.355882
20
0.869860
30
0.024079
11
-0.348758
21
0.921100
31
0.013941
12
-0.500000
22
0.750000
32
0.000000
13
-0.500000
23
0.750000
33
0.000000
0
3DFACE
8
0
10
-0.365410
20
0.780295
30
0.100107
11
-0.395062
21
0.808642
31
0.024691
12
-0.404959
22
0.793388
32
0.024793
13
-0.404959
23
0.793388
33
0.024793
0
3DFACE
8
0
10
-0.444955
20
0.732578
30
0.024997
11
-0.424733
21
0.706909
31
0.083302
12
-0.434894
22
0.747750
32
0.024977
13
-0.434894
23
0.747750
33
0.024977
0
3DFACE
8
0
10
-0.845873
20
0.077064
30
0.119906
11
-0.819619
21
0.132638
31
0.099600
12
-0.865448
22
0.111514
32
0.060394
13
-0.865448
23
0.111514
33
0.060394
0
3DFACE
8
0
10
-0.865448
20
0.111514
30
0.060394
11
-0.904336
21
0.047832
31
0.073380
12
-0.892562
22
0.053719
32
0.082645
13
-0.892562
23
0.053719
33
0.082645
0
3DFACE
8
0
10
-0.365616
20
0.317192
30
0.561596
11
-0.367346
21
0.384100
31
0.494890
12
-0.375390
22
0.312305
32
0.551331
13
-0.375390
23
0.312305
33
0.551331
0
3DFACE
8
0
10
-0.125803
20
0.437098
30
0.835629
11
-0.088589
21
0.500202
31
0.830181
12
-0.116447
22
0.494375
32
0.787580
13
-0.116447
23
0.494375
33
0.787580
0
3DFACE
8
0
10
-0.317355
20
0.931405
30
0.023140
11
-0.500000
21
0.750000
31
0.000000
12
-0.348758
22
0.921100
32
0.013941
13
-0.348758
23
0.921100
33
0.013941
0
3DFACE
8
0
10
-0.522431
20
0.673680
30
0.010668
11
-0.475380
21
0.687185
31
0.024936
12
-0.500000
22
0.750000
32
0.000000
13
-0.500000
23
0.750000
33
0.000000
0
3DFACE
8
0
10
-0.008101
20
0.495949
30
0.988899
11
0.000000
21
0.516243
31
0.977819
12
-0.016243
22
0.491878
32
0.977819
13
-0.016243
23
0.491878
33
0.977819
0
3DFACE
8
0
10
0.000000
20
0.516243
30
0.977819
11
-0.008101
21
0.495949
31
0.988899
12
0.000000
22
0.508101
32
0.988899
13
0.000000
23
0.508101
33
0.988899
0
3DFACE
8
0
10
-0.049219
20
0.475390
30
0.933701
11
-0.034821
21
0.520959
31
0.903819
12
-0.057566
22
0.471217
32
0.922722
13
-0.057566
23
0.471217
33
0.922722
0
3DFACE
8
0
10
-0.032650
20
0.483675
30
0.955719
11
-0.034821
21
0.520959
31
0.903819
12
-0.040914
22
0.479543
32
0.944700
13
-0.040914
23
0.479543
33
0.944700
0
3DFACE
8
0
10
-0.074380
20
0.462810
30
0.900826
11
-0.064985
21
0.502087
31
0.870808
12
-0.082849
22
0.458576
32
0.889909
13
-0.082849
23
0.458576
33
0.889909
0
3DFACE
8
0
10
-0.034821
20
0.520959
30
0.903819
11
0.000000
21
0.557566
31
0.922722
12
0.000000
22
0.565952
32
0.911764
13
0.000000
23
0.565952
33
0.911764
0
3DFACE
8
0
10
-0.040914
20
0.479543
30
0.944700
11
-0.034821
21
0.520959
31
0.903819
12
-0.049219
22
0.475390
32
0.933701
13
-0.049219
23
0.475390
33
0.933701
0
3DFACE
8
0
10
-0.034821
20
0.520959
30
0.903819
11
0.000000
21
0.565952
31
0.911764
12
0.000000
22
0.574380
32
0.900826
13
0.000000
23
0.574380
33
0.900826
0
3DFACE
8
0
10
-0.088589
20
0.500202
30
0.830181
11
-0.091358
21
0.454321
31
0.879012
12
-0.064985
22
0.502087
32
0.870808
13
-0.064985
23
0.502087
33
0.870808
0
3DFACE
8
0
10
0.000000
20
0.532650
30
0.955719
11
-0.034821
21
0.520959
31
0.903819
12
-0.032650
22
0.483675
32
0.955719
13
-0.032650
23
0.483675
33
0.955719
0
3DFACE
8
0
10
-0.064985
20
0.502087
30
0.870808
11
-0.065952
21
0.467024
31
0.911764
12
-0.034821
22
0.520959
32
0.903819
13
-0.034821
23
0.520959
33
0.903819
0
3DFACE
8
0
10
-0.046012
20
0.543457
30
0.855252
11
0.000000
21
0.582849
31
0.889909
12
0.000000
22
0.591358
32
0.879012
13
0.000000
23
0.591358
33
0.879012
0
3DFACE
8
0
10
0.000000
20
0.524426
30
0.966758
11
-0.016243
21
0.491878
31
0.977819
12
0.000000
22
0.516243
32
0.977819
13
0.000000
23
0.516243
33
0.977819
0
3DFACE
8
0
10
-0.024426
20
0.487787
30
0.966758
11
0.000000
21
0.532650
31
0.955719
12
-0.032650
22
0.483675
32
0.955719
13
-0.032650
23
0.483675
33
0.955719
0
3DFACE
8
0
10
-0.444955
20
0.732578
30
0.024997
11
-0.500000
21
0.750000
31
0.000000
12
-0.455056
22
0.717427
32
0.024997
13
-0.455056
23
0.717427
33
0.024997
0
3DFACE
8
0
10
-0.434894
20
0.747750
30
0.024977
11
-0.398066
21
0.747494
31
0.082888
12
-0.424875
22
0.762943
32
0.024936
13
-0.424875
23
0.762943
33
0.024936
0
3DFACE
8
0
10
-0.053542
20
1.130730
30
0.229009
11
0.000000
21
1.143853
31
0.291623
12
0.000000
22
1.154729
32
0.281910
13
0.000000
23
1.154729
33
0.281910
0
3DFACE
8
0
10
-0.099908
20
1.307530
30
0.010652
11
-0.081269
21
1.270183
31
0.068536
12
-0.063966
22
1.311648
32
0.058639
13
-0.063966
23
1.311648
33
0.058639
0
3DFACE
8
0
10
-0.135716
20
1.190107
30
0.058398
11
-0.169779
21
1.180849
31
0.016121
12
-0.161888
22
1.144726
32
0.059973
13
-0.161888
23
1.144726
33
0.059973
0
3DFACE
8
0
10
-0.414896
20
0.778155
30
0.024875
11
-0.436354
21
0.802986
31
0.010621
12
-0.424875
22
0.762943
32
0.024936
13
-0.424875
23
0.762943
33
0.024936
0
3DFACE
8
0
10
-0.865448
20
0.111514
30
0.060394
11
-0.892562
21
0.053719
31
0.082645
12
-0.880828
22
0.059586
32
0.091929
13
-0.880828
23
0.059586
33
0.091929
0
3DFACE
8
0
10
-0.904336
20
0.047832
30
0.073380
11
-0.865448
21
0.111514
31
0.060394
12
-1.000000
22
0.000000
32
0.000000
13
-1.000000
23
0.000000
33
0.000000
0
3DFACE
8
0
10
-0.865448
20
0.111514
30
0.060394
11
-0.880828
21
0.059586
31
0.091929
12
-0.869136
22
0.065432
32
0.101235
13
-0.869136
23
0.065432
33
0.101235
0
3DFACE
8
0
10
-0.624394
20
0.395422
30
0.105163
11
-0.616292
21
0.434745
31
0.076289
12
-0.661053
22
0.378094
32
0.069913
13
-0.661053
23
0.378094
33
0.069913
0
3DFACE
8
0
10
-0.687603
20
0.389256
30
0.019835
11
-0.661053
21
0.378094
31
0.069913
12
-0.676604
22
0.403959
32
0.020284
13
-0.676604
23
0.403959
33
0.020284
0
3DFACE
8
0
10
-0.601925
20
0.289439
30
0.243414
11
-0.649731
21
0.233711
31
0.230564
12
-0.619442
22
0.236225
32
0.270175
13
-0.619442
23
0.236225
33
0.270175
0
3DFACE
8
0
10
-0.304379
20
0.506647
30
0.470230
11
-0.340258
21
0.454947
31
0.466760
12
-0.310856
22
0.452035
32
0.514806
13
-0.310856
23
0.452035
33
0.514806
0
3DFACE
8
0
10
-0.781362
20
0.147763
30
0.135422
11
-0.788430
21
0.105785
31
0.166942
12
-0.777064
22
0.111468
32
0.176411
13
-0.777064
23
0.111468
33
0.176411
0
3DFACE
8
0
10
-0.655824
20
0.340620
30
0.115947
11
-0.696886
21
0.324053
31
0.074474
12
-0.690292
22
0.284892
32
0.123632
13
-0.690292
23
0.284892
33
0.123632
0
3DFACE
8
0
10
-0.649731
20
0.233711
30
0.230564
11
-0.692413
21
0.204762
31
0.199867
12
-0.676604
22
0.161698
32
0.262545
13
-0.676604
23
0.161698
33
0.262545
0
3DFACE
8
0
10
-0.586611
20
0.258343
30
0.294999
11
-0.600755
21
0.199622
31
0.330681
12
-0.590083
22
0.204959
32
0.340496
13
-0.590083
23
0.204959
33
0.340496
0
3DFACE
8
0
10
-0.516519
20
0.241741
30
0.409775
11
-0.507805
21
0.290606
31
0.376468
12
-0.526905
22
0.236547
32
0.399816
13
-0.526905
23
0.236547
33
0.399816
0
3DFACE
8
0
10
-0.629654
20
0.291549
30
0.202207
11
-0.601925
21
0.289439
31
0.243414
12
-0.585056
22
0.345864
32
0.212028
13
-0.585056
23
0.345864
33
0.212028
0
3DFACE
8
0
10
-0.696886
20
0.324053
30
0.074474
11
-0.709723
21
0.359912
31
0.018876
12
-0.743210
22
0.316049
32
0.017284
13
-0.743210
23
0.316049
33
0.017284
0
3DFACE
8
0
10
-0.709723
20
0.359912
30
0.018876
11
-0.696886
21
0.324053
31
0.074474
12
-0.661053
22
0.378094
32
0.069913
13
-0.661053
23
0.378094
33
0.069913
0
3DFACE
8
0
10
-0.649731
20
0.233711
30
0.230564
11
-0.665646
21
0.167177
31
0.272217
12
-0.654729
22
0.172635
32
0.281910
13
-0.654729
23
0.172635
33
0.281910
0
3DFACE
8
0
10
-0.143271
20
0.428364
30
0.814060
11
-0.153104
21
0.465296
31
0.756302
12
-0.152066
22
0.423967
32
0.803306
13
-0.152066
23
0.423967
33
0.803306
0
3DFACE
8
0
10
-0.245063
20
0.502191
30
0.567042
11
-0.277083
21
0.498170
31
0.520965
12
-0.281322
22
0.453070
32
0.559733
13
-0.281322
23
0.453070
33
0.559733
0
3DFACE
8
0
10
-0.235030
20
0.591897
30
0.490759
11
-0.212064
21
0.650609
31
0.465895
12
-0.255876
22
0.620364
32
0.429607
13
-0.255876
23
0.620364
33
0.429607
0
3DFACE
8
0
10
-0.245523
20
0.428333
30
0.641545
11
-0.270115
21
0.364942
31
0.665361
12
-0.260790
22
0.369605
32
0.675849
13
-0.260790
23
0.369605
33
0.675849
0
3DFACE
8
0
10
-0.167785
20
0.686845
30
0.496537
11
-0.212064
21
0.650609
31
0.465895
12
-0.191302
22
0.617644
32
0.532129
13
-0.191302
23
0.617644
33
0.532129
0
3DFACE
8
0
10
-0.398066
20
0.747494
30
0.082888
11
-0.414896
21
0.778155
31
0.024875
12
-0.424875
22
0.762943
32
0.024936
13
-0.424875
23
0.762943
33
0.024936
0
3DFACE
8
0
10
-0.034821
20
0.520959
30
0.903819
11
0.000000
21
0.532650
31
0.955719
12
0.000000
22
0.540914
32
0.944700
13
0.000000
23
0.540914
33
0.944700
0
3DFACE
8
0
10
-0.034821
20
0.520959
30
0.903819
11
0.000000
21
0.549219
31
0.933701
12
0.000000
22
0.557566
32
0.922722
13
0.000000
23
0.557566
33
0.922722
0
3DFACE
8
0
10
-0.082849
20
0.458576
30
0.889909
11
-0.064985
21
0.502087
31
0.870808
12
-0.091358
22
0.454321
32
0.879012
13
-0.091358
23
0.454321
33
0.879012
0
3DFACE
8
0
10
-0.091358
20
0.454321
30
0.879012
11
-0.088589
21
0.500202
31
0.830181
12
-0.099908
22
0.450046
32
0.868136
13
-0.099908
23
0.450046
33
0.868136
0
3DFACE
8
0
10
-0.245523
20
0.428333
30
0.641545
11
-0.251505
21
0.374248
31
0.686359
12
-0.242261
22
0.378870
32
0.696888
13
-0.242261
23
0.378870
33
0.696888
0
3DFACE
8
0
10
-0.339009
20
0.396344
30
0.526279
11
-0.310856
21
0.452035
31
0.514806
12
-0.340258
22
0.454947
32
0.466760
13
-0.340258
23
0.454947
33
0.466760
0
3DFACE
8
0
10
-0.590083
20
0.522314
30
0.023140
11
-0.645664
21
0.482384
31
0.012280
12
-0.600755
22
0.507448
32
0.022855
13
-0.600755
23
0.507448
33
0.022855
0
3DFACE
8
0
10
-0.091843
20
0.966924
30
0.327207
11
-0.085592
21
1.018441
31
0.286997
12
-0.127391
22
0.964798
32
0.277677
13
-0.127391
23
0.964798
33
0.277677
0
3DFACE
8
0
10
0.000000
20
1.090083
30
0.340496
11
-0.044369
21
1.062635
31
0.304096
12
0.000000
22
1.079451
32
0.350332
13
0.000000
23
1.079451
33
0.350332
0
3DFACE
8
0
10
-0.187430
20
1.051345
30
0.107343
11
-0.208497
21
0.995671
31
0.128147
12
-0.178261
22
0.999878
32
0.169333
13
-0.178261
23
0.999878
33
0.169333
0
3DFACE
8
0
10
-0.211779
20
0.893532
30
0.221886
11
-0.183886
21
0.946203
31
0.212351
12
-0.212258
22
0.947007
32
0.169153
13
-0.212258
23
0.947007
33
0.169153
0
3DFACE
8
0
10
-0.283865
20
0.683214
30
0.323161
11
-0.281451
21
0.744854
31
0.264605
12
-0.332375
22
0.668840
32
0.263899
13
-0.332375
23
0.668840
33
0.263899
0
3DFACE
8
0
10
-0.170369
20
1.100110
30
0.087796
11
-0.187430
21
1.051345
31
0.107343
12
-0.142029
22
1.079714
32
0.148288
13
-0.142029
23
1.079714
33
0.148288
0
3DFACE
8
0
10
-0.000000
20
1.187603
30
0.252893
11
-0.053542
21
1.130730
31
0.229009
12
0.000000
22
1.176604
32
0.262545
13
0.000000
23
1.176604
33
0.262545
0
3DFACE
8
0
10
-0.063966
20
1.311648
30
0.058639
11
-0.152066
21
1.212397
31
0.014876
12
-0.099908
22
1.307530
32
0.010652
13
-0.099908
23
1.307530
33
0.010652
0
3DFACE
8
0
10
-0.395062
20
0.808642
30
0.024691
11
-0.436354
21
0.802986
31
0.010621
12
-0.404959
22
0.793388
32
0.024793
13
-0.404959
23
0.793388
33
0.024793
0
3DFACE
8
0
10
-0.043623
20
0.914467
30
0.448200
11
0.000000
21
0.965197
31
0.459871
12
-0.054909
22
0.934222
32
0.412328
13
-0.054909
23
0.934222
33
0.412328
0
3DFACE
8
0
10
0.000000
20
1.133017
30
0.301357
11
-0.061930
21
1.082454
31
0.261067
12
0.000000
22
1.122222
32
0.311111
13
0.000000
23
1.122222
33
0.311111
0
3DFACE
8
0
10
-0.781362
20
0.147763
30
0.135422
11
-0.732476
21
0.184519
31
0.165117
12
-0.772003
22
0.184517
32
0.111677
13
-0.772003
23
0.184517
33
0.111677
0
3DFACE
8
0
10
-0.754339
20
0.150022
30
0.169283
11
-0.732007
21
0.133997
31
0.214488
12
-0.732476
22
0.184519
32
0.165117
13
-0.732476
23
0.184519
33
0.165117
0
3DFACE
8
0
10
-0.751522
20
0.227197
30
0.096885
11
-0.793010
21
0.204169
31
0.063632
12
-0.772003
22
0.184517
32
0.111677
13
-0.772003
23
0.184517
33
0.111677
0
3DFACE
8
0
10
-0.727202
20
0.274941
30
0.082198
11
-0.764974
21
0.246827
31
0.058522
12
-0.751522
22
0.227197
32
0.096885
13
-0.751522
23
0.227197
33
0.096885
0
3DFACE
8
0
10
-0.824758
20
0.161521
30
0.063983
11
-0.819619
21
0.132638
31
0.099600
12
-0.772003
22
0.184517
32
0.111677
13
-0.772003
23
0.184517
33
0.111677
0
3DFACE
8
0
10
-0.781362
20
0.147763
30
0.135422
11
-0.811285
21
0.094358
31
0.148067
12
-0.799837
22
0.100082
32
0.157494
13
-0.799837
23
0.100082
33
0.157494
0
3DFACE
8
0
10
-0.811285
20
0.094358
30
0.148067
11
-0.781362
21
0.147763
31
0.135422
12
-0.819619
22
0.132638
32
0.099600
13
-0.819619
23
0.132638
33
0.099600
0
3DFACE
8
0
10
-0.865448
20
0.111514
30
0.060394
11
-0.869136
21
0.065432
31
0.101235
12
-0.857484
22
0.071258
32
0.110560
13
-0.857484
23
0.071258
33
0.110560
0
3DFACE
8
0
10
-0.673555
20
0.254224
30
0.177500
11
-0.649731
21
0.233711
31
0.230564
12
-0.629654
22
0.291549
32
0.202207
13
-0.629654
23
0.291549
33
0.202207
0
3DFACE
8
0
10
-0.624394
20
0.395422
30
0.105163
11
-0.655824
21
0.340620
31
0.115947
12
-0.609099
22
0.381635
32
0.141458
13
-0.609099
23
0.381635
33
0.141458
0
3DFACE
8
0
10
-0.281270
20
0.407472
30
0.605312
11
-0.307826
21
0.346087
31
0.623610
12
-0.298337
22
0.350832
32
0.634017
13
-0.298337
23
0.350832
33
0.634017
0
3DFACE
8
0
10
-0.430110
20
0.338880
30
0.444129
11
-0.444955
21
0.277523
31
0.480053
12
-0.434894
22
0.282553
32
0.490174
13
-0.434894
23
0.282553
33
0.490174
0
3DFACE
8
0
10
-0.575131
20
0.483031
30
0.086990
11
-0.590083
21
0.522314
31
0.023140
12
-0.600755
22
0.507448
32
0.022855
13
-0.600755
23
0.507448
33
0.022855
0
3DFACE
8
0
10
-0.442061
20
0.531811
30
0.236363
11
-0.493530
21
0.493106
31
0.198394
12
-0.485227
22
0.458115
32
0.246026
13
-0.485227
23
0.458115
33
0.246026
0
3DFACE
8
0
10
-0.717358
20
0.231114
30
0.139830
11
-0.751522
21
0.227197
31
0.096885
12
-0.772003
22
0.184517
32
0.111677
13
-0.772003
23
0.184517
33
0.111677
0
3DFACE
8
0
10
-0.485604
20
0.257198
30
0.439771
11
-0.483714
21
0.317884
31
0.385476
12
-0.495868
22
0.252066
32
0.429752
13
-0.495868
23
0.252066
33
0.429752
0
3DFACE
8
0
10
-0.443840
20
0.428026
30
0.337346
11
-0.470548
21
0.428697
31
0.297080
12
-0.473139
22
0.375531
32
0.345430
13
-0.473139
23
0.375531
33
0.345430
0
3DFACE
8
0
10
-0.673555
20
0.254224
30
0.177500
11
-0.629654
21
0.291549
31
0.202207
12
-0.653990
22
0.302593
32
0.156921
13
-0.653990
23
0.302593
33
0.156921
0
3DFACE
8
0
10
-0.692413
20
0.204762
30
0.199867
11
-0.649731
21
0.233711
31
0.230564
12
-0.673555
22
0.254224
32
0.177500
13
-0.673555
23
0.254224
33
0.177500
0
3DFACE
8
0
10
-0.181109
20
0.468023
30
0.706072
11
-0.136703
21
0.510217
31
0.735100
12
-0.158998
22
0.518041
32
0.689299
13
-0.158998
23
0.518041
33
0.689299
0
3DFACE
8
0
10
-0.181109
20
0.468023
30
0.706072
11
-0.187654
21
0.406173
31
0.760494
12
-0.153104
22
0.465296
32
0.756302
13
-0.153104
23
0.465296
33
0.756302
0
3DFACE
8
0
10
-0.122530
20
0.559910
30
0.704013
11
-0.158998
21
0.518041
31
0.689299
12
-0.136703
22
0.510217
32
0.735100
13
-0.136703
23
0.510217
33
0.735100
0
3DFACE
8
0
10
-0.169779
20
0.415111
30
0.781859
11
-0.153104
21
0.465296
31
0.756302
12
-0.178696
22
0.410652
32
0.771166
13
-0.178696
23
0.410652
33
0.771166
0
3DFACE
8
0
10
-0.153104
20
0.465296
30
0.756302
11
-0.116447
21
0.494375
31
0.787580
12
-0.136703
22
0.510217
32
0.735100
13
-0.136703
23
0.510217
33
0.735100
0
3DFACE
8
0
10
-0.281322
20
0.453070
30
0.559733
11
-0.254689
21
0.455953
31
0.598843
12
-0.245063
22
0.502191
32
0.567042
13
-0.245063
23
0.502191
33
0.567042
0
3DFACE
8
0
10
-0.246687
20
0.671520
30
0.391575
11
-0.295064
21
0.620771
31
0.369314
12
-0.255876
22
0.620364
32
0.429607
13
-0.255876
23
0.620364
33
0.429607
0
3DFACE
8
0
10
-0.225110
20
0.731254
30
0.363739
11
-0.248021
21
0.753007
31
0.307079
12
-0.283865
22
0.683214
32
0.323161
13
-0.283865
23
0.683214
33
0.323161
0
3DFACE
8
0
10
-0.045342
20
0.997845
30
0.363958
11
0.000000
21
1.006173
31
0.419753
12
0.000000
22
1.016519
32
0.409775
13
0.000000
23
1.016519
33
0.409775
0
3DFACE
8
0
10
-0.034821
20
0.520959
30
0.903819
11
0.000000
21
0.540914
31
0.944700
12
0.000000
22
0.549219
32
0.933701
13
0.000000
23
0.549219
33
0.933701
0
3DFACE
8
0
10
-0.016243
20
0.491878
30
0.977819
11
0.000000
21
0.524426
31
0.966758
12
-0.024426
22
0.487787
32
0.966758
13
-0.024426
23
0.487787
33
0.966758
0
3DFACE
8
0
10
-0.088589
20
0.500202
30
0.830181
11
-0.125803
21
0.437098
31
0.835629
12
-0.117131
22
0.441435
32
0.846444
13
-0.117131
23
0.441435
33
0.846444
0
3DFACE
8
0
10
-0.038357
20
0.580074
30
0.824372
11
0.000000
21
0.591358
31
0.879012
12
0.000000
22
0.599908
32
0.868136
13
0.000000
23
0.599908
33
0.868136
0
3DFACE
8
0
10
-0.059404
20
0.712199
30
0.637358
11
-0.038753
21
0.751927
31
0.625726
12
-0.076417
22
0.722305
32
0.599847
13
-0.076417
23
0.722305
33
0.599847
0
3DFACE
8
0
10
-0.050858
20
0.599237
30
0.779937
11
-0.051162
21
0.635805
31
0.736682
12
-0.082569
22
0.588772
32
0.738314
13
-0.082569
23
0.588772
33
0.738314
0
3DFACE
8
0
10
-0.051162
20
0.635805
30
0.736682
11
0.000000
21
0.660902
31
0.792572
12
0.000000
22
0.669779
32
0.781859
13
0.000000
23
0.669779
33
0.781859
0
3DFACE
8
0
10
0.000000
20
0.660902
30
0.792572
11
-0.050858
21
0.599237
31
0.779937
12
0.000000
22
0.652066
32
0.803306
13
0.000000
23
0.652066
33
0.803306
0
3DFACE
8
0
10
-0.098249
20
0.546929
30
0.759429
11
-0.074678
21
0.543960
31
0.803584
12
-0.050858
22
0.599237
32
0.779937
13
-0.050858
23
0.599237
33
0.779937
0
3DFACE
8
0
10
-0.038357
20
0.580074
30
0.824372
11
0.000000
21
0.634517
31
0.824834
12
-0.050858
22
0.599237
32
0.779937
13
-0.050858
23
0.599237
33
0.779937
0
3DFACE
8
0
10
-0.065952
20
0.467024
30
0.911764
11
-0.064985
21
0.502087
31
0.870808
12
-0.074380
22
0.462810
32
0.900826
13
-0.074380
23
0.462810
33
0.900826
0
3DFACE
8
0
10
-0.210172
20
0.555216
30
0.567467
11
-0.175675
21
0.574178
31
0.602340
12
-0.191302
22
0.617644
32
0.532129
13
-0.191302
23
0.617644
33
0.532129
0
3DFACE
8
0
10
-0.181109
20
0.468023
30
0.706072
11
-0.214774
21
0.392613
31
0.728599
12
-0.205693
22
0.397153
32
0.739210
13
-0.205693
23
0.397153
33
0.739210
0
3DFACE
8
0
10
-0.212692
20
0.452434
30
0.670224
11
-0.181109
21
0.468023
31
0.706072
12
-0.190295
22
0.515790
32
0.640440
13
-0.190295
23
0.515790
33
0.640440
0
3DFACE
8
0
10
-0.465197
20
0.702296
30
0.024977
11
-0.500000
21
0.750000
31
0.000000
12
-0.475380
22
0.687185
32
0.024936
13
-0.475380
23
0.687185
33
0.024936
0
3DFACE
8
0
10
-0.455056
20
0.717427
30
0.024997
11
-0.500000
21
0.750000
31
0.000000
12
-0.465197
22
0.702296
32
0.024977
13
-0.465197
23
0.702296
33
0.024977
0
3DFACE
8
0
10
-0.537333
20
0.596949
30
0.024263
11
-0.496843
21
0.577237
31
0.107008
12
-0.516519
22
0.626946
32
0.024569
13
-0.516519
23
0.626946
33
0.024569
0
3DFACE
8
0
10
-0.098511
20
0.918028
30
0.365201
11
-0.088689
21
0.885157
31
0.412146
12
-0.054909
22
0.934222
32
0.412328
13
-0.054909
23
0.934222
33
0.412328
0
3DFACE
8
0
10
-0.111605
20
1.027762
30
0.240801
11
-0.127391
21
0.964798
31
0.277677
12
-0.085592
22
1.018441
32
0.286997
13
-0.085592
23
1.018441
33
0.286997
0
3DFACE
8
0
10
-0.321896
20
0.814246
30
0.133038
11
-0.365410
21
0.780295
31
0.100107
12
-0.342164
22
0.758630
32
0.158010
13
-0.342164
23
0.758630
33
0.158010
0
3DFACE
8
0
10
-0.150723
20
0.980231
30
0.228702
11
-0.178261
21
0.999878
31
0.169333
12
-0.183886
22
0.946203
32
0.212351
13
-0.183886
23
0.946203
33
0.212351
0
3DFACE
8
0
10
0.000000
20
1.369136
30
0.101235
11
-0.033658
21
1.325670
31
0.089729
12
-0.000000
22
1.357484
32
0.110560
13
-0.000000
23
1.357484
33
0.110560
0
3DFACE
8
0
10
0.000000
20
1.299837
30
0.157494
11
-0.034819
21
1.244769
31
0.155489
12
-0.000000
22
1.288430
32
0.166942
13
-0.000000
23
1.288430
33
0.166942
0
3DFACE
8
0
10
0.000000
20
1.345873
30
0.119906
11
-0.033658
21
1.325670
31
0.089729
12
0.000000
22
1.334303
32
0.129273
13
0.000000
23
1.334303
33
0.129273
0
3DFACE
8
0
10
-0.000000
20
1.243210
30
0.204938
11
-0.039847
21
1.185942
31
0.199189
12
-0.000000
22
1.232007
32
0.214488
13
-0.000000
23
1.232007
33
0.214488
0
3DFACE
8
0
10
-0.034819
20
1.244769
30
0.155489
11
0.000000
21
1.254454
31
0.195409
12
0.000000
22
1.265738
32
0.185899
13
0.000000
23
1.265738
33
0.185899
0
3DFACE
8
0
10
-0.436354
20
0.802986
30
0.010621
11
-0.414896
21
0.778155
31
0.024875
12
-0.404959
22
0.793388
32
0.024793
13
-0.404959
23
0.793388
33
0.024793
0
3DFACE
8
0
10
-0.436354
20
0.802986
30
0.010621
11
-0.434894
21
0.747750
31
0.024977
12
-0.424875
22
0.762943
32
0.024936
13
-0.424875
23
0.762943
33
0.024936
0
3DFACE
8
0
10
-0.348758
20
0.921100
30
0.013941
11
-0.336537
21
0.900592
31
0.023651
12
-0.326926
22
0.915988
32
0.023406
13
-0.326926
23
0.915988
33
0.023406
0
3DFACE
8
0
10
-0.348758
20
0.921100
30
0.013941
11
-0.326926
21
0.915988
31
0.023406
12
-0.317355
22
0.931405
32
0.023140
13
-0.317355
23
0.931405
33
0.023140
0
3DFACE
8
0
10
-0.342164
20
0.758630
30
0.158010
11
-0.301112
21
0.786099
31
0.193204
12
-0.321896
22
0.814246
32
0.133038
13
-0.321896
23
0.814246
33
0.133038
0
3DFACE
8
0
10
-0.035437
20
0.824681
30
0.552431
11
0.000000
21
0.855882
31
0.571880
12
0.000000
22
0.865616
32
0.561596
13
0.000000
23
0.865616
33
0.561596
0
3DFACE
8
0
10
0.000000
20
0.826926
30
0.602857
11
-0.061526
21
0.765349
31
0.576465
12
0.000000
22
0.817355
32
0.613223
13
0.000000
23
0.817355
33
0.613223
0
3DFACE
8
0
10
-0.088689
20
0.885157
30
0.412146
11
-0.047068
21
0.882960
31
0.475029
12
-0.043623
22
0.914467
32
0.448200
13
-0.043623
23
0.914467
33
0.448200
0
3DFACE
8
0
10
0.000000
20
0.895062
30
0.530864
11
-0.047068
21
0.882960
31
0.475029
12
-0.050531
22
0.845341
32
0.508591
13
-0.050531
23
0.845341
33
0.508591
0
3DFACE
8
0
10
-0.000000
20
0.788889
30
0.644444
11
-0.038753
21
0.751927
31
0.625726
12
0.000000
22
0.779482
32
0.654892
13
0.000000
23
0.779482
33
0.654892
0
3DFACE
8
0
10
-1.000000
20
0.000000
30
0.000000
11
-0.824758
21
0.161521
31
0.063983
12
-0.709723
22
0.359912
32
0.018876
13
-0.709723
23
0.359912
33
0.018876
0
3DFACE
8
0
10
-0.793010
20
0.204169
30
0.063632
11
-0.751522
21
0.227197
31
0.096885
12
-0.764974
22
0.246827
32
0.058522
13
-0.764974
23
0.246827
33
0.058522
0
3DFACE
8
0
10
-0.824758
20
0.161521
30
0.063983
11
-1.000000
21
0.000000
31
0.000000
12
-0.865448
22
0.111514
32
0.060394
13
-0.865448
23
0.111514
33
0.060394
0
3DFACE
8
0
10
-0.865448
20
0.111514
30
0.060394
11
-0.857484
21
0.071258
31
0.110560
12
-0.845873
22
0.077064
32
0.119906
13
-0.845873
23
0.077064
33
0.119906
0
3DFACE
8
0
10
-0.819619
20
0.132638
30
0.099600
11
-0.845873
21
0.077064
31
0.119906
12
-0.834303
22
0.082849
32
0.129273
13
-0.834303
23
0.082849
33
0.129273
0
3DFACE
8
0
10
-0.586611
20
0.258343
30
0.294999
11
-0.546401
21
0.297684
31
0.314358
12
-0.568101
22
0.304807
32
0.276549
13
-0.568101
23
0.304807
33
0.276549
0
3DFACE
8
0
10
-0.487602
20
0.537262
30
0.162255
11
-0.534329
21
0.488367
31
0.142343
12
-0.493530
22
0.493106
32
0.198394
13
-0.493530
23
0.493106
33
0.198394
0
3DFACE
8
0
10
-0.579451
20
0.537200
30
0.023406
11
-0.575131
21
0.483031
31
0.086990
12
-0.535090
22
0.532175
32
0.095883
13
-0.535090
23
0.532175
33
0.095883
0
3DFACE
8
0
10
-0.433020
20
0.390703
30
0.389940
11
-0.401160
21
0.385019
31
0.442931
12
-0.397183
22
0.431469
32
0.403636
13
-0.397183
23
0.431469
33
0.403636
0
3DFACE
8
0
10
-0.433020
20
0.390703
30
0.389940
11
-0.473139
21
0.375531
31
0.345430
12
-0.457296
22
0.335884
32
0.406924
13
-0.457296
23
0.335884
33
0.406924
0
3DFACE
8
0
10
-0.337109
20
0.614543
30
0.311624
11
-0.295064
21
0.620771
31
0.369314
12
-0.283865
22
0.683214
32
0.323161
13
-0.283865
23
0.683214
33
0.323161
0
3DFACE
8
0
10
-0.616292
20
0.434745
30
0.076289
11
-0.633017
21
0.462973
31
0.021875
12
-0.665646
22
0.418682
32
0.020712
13
-0.665646
23
0.418682
33
0.020712
0
3DFACE
8
0
10
-0.819619
20
0.132638
30
0.099600
11
-0.834303
21
0.082849
31
0.129273
12
-0.822773
22
0.088613
32
0.138659
13
-0.822773
23
0.088613
33
0.138659
0
3DFACE
8
0
10
-0.819619
20
0.132638
30
0.099600
11
-0.822773
21
0.088613
31
0.138659
12
-0.811285
22
0.094358
32
0.148067
13
-0.811285
23
0.094358
33
0.148067
0
3DFACE
8
0
10
-0.561930
20
0.255242
30
0.332704
11
-0.547801
21
0.226099
31
0.379961
12
-0.531621
22
0.280452
32
0.351935
13
-0.531621
23
0.280452
33
0.351935
0
3DFACE
8
0
10
0.000000
20
0.591358
30
0.879012
11
-0.038357
21
0.580074
31
0.824372
12
-0.046012
22
0.543457
32
0.855252
13
-0.046012
23
0.543457
33
0.855252
0
3DFACE
8
0
10
-0.116447
20
0.494375
30
0.787580
11
-0.088589
21
0.500202
31
0.830181
12
-0.074678
22
0.543960
32
0.803584
13
-0.074678
23
0.543960
33
0.803584
0
3DFACE
8
0
10
-0.050858
20
0.599237
30
0.779937
11
0.000000
21
0.634517
31
0.824834
12
0.000000
22
0.643271
32
0.814060
13
0.000000
23
0.643271
33
0.814060
0
3DFACE
8
0
10
0.000000
20
0.875390
30
0.551331
11
-0.050531
21
0.845341
31
0.508591
12
-0.035437
22
0.824681
32
0.552431
13
-0.035437
23
0.824681
33
0.552431
0
3DFACE
8
0
10
-0.178293
20
0.756743
30
0.408654
11
-0.180690
21
0.801305
31
0.359957
12
-0.225110
22
0.731254
32
0.363739
13
-0.225110
23
0.731254
33
0.363739
0
3DFACE
8
0
10
-0.281270
20
0.407472
30
0.605312
11
-0.298337
21
0.350832
31
0.634017
12
-0.288889
22
0.355556
32
0.644444
13
-0.288889
23
0.355556
33
0.644444
0
3DFACE
8
0
10
-0.475380
20
0.687185
30
0.024936
11
-0.522431
21
0.673680
31
0.010668
12
-0.485604
22
0.672095
32
0.024875
13
-0.485604
23
0.672095
33
0.024875
0
3DFACE
8
0
10
-0.522431
20
0.673680
30
0.010668
11
-0.516519
21
0.626946
31
0.024569
12
-0.506173
22
0.641975
32
0.024691
13
-0.506173
23
0.641975
33
0.024691
0
3DFACE
8
0
10
-0.645664
20
0.482384
30
0.012280
11
-0.516519
21
0.626946
31
0.024569
12
-0.522431
22
0.673680
32
0.010668
13
-0.522431
23
0.673680
33
0.010668
0
3DFACE
8
0
10
-0.485604
20
0.672095
30
0.024875
11
-0.522431
21
0.673680
31
0.010668
12
-0.495868
22
0.657025
32
0.024793
13
-0.495868
23
0.657025
33
0.024793
0
3DFACE
8
0
10
-0.537333
20
0.596949
30
0.024263
11
-0.645664
21
0.482384
31
0.012280
12
-0.558310
22
0.567034
32
0.023875
13
-0.558310
23
0.567034
33
0.023875
0
3DFACE
8
0
10
-0.282740
20
0.847186
30
0.160197
11
-0.301112
21
0.786099
31
0.193204
12
-0.266444
22
0.807737
32
0.224315
13
-0.266444
23
0.807737
33
0.224315
0
3DFACE
8
0
10
-0.301112
20
0.786099
30
0.193204
11
-0.342164
21
0.758630
31
0.158010
12
-0.317601
22
0.732700
32
0.221830
13
-0.317601
23
0.732700
33
0.221830
0
3DFACE
8
0
10
-0.285025
20
0.926787
30
0.077993
11
-0.309738
21
0.872140
31
0.093853
12
-0.272708
22
0.899661
32
0.123589
13
-0.272708
23
0.899661
33
0.123589
0
3DFACE
8
0
10
-0.285025
20
0.926787
30
0.077993
11
-0.326926
21
0.915988
31
0.023406
12
-0.309738
22
0.872140
32
0.093853
13
-0.309738
23
0.872140
33
0.093853
0
3DFACE
8
0
10
-0.056533
20
0.962762
30
0.381997
11
0.000000
21
0.985604
31
0.439771
12
0.000000
22
0.995868
32
0.429752
13
0.000000
23
0.995868
33
0.429752
0
3DFACE
8
0
10
-0.098392
20
1.172660
30
0.127927
11
-0.134143
21
1.150545
31
0.095672
12
-0.123550
22
1.124839
32
0.134218
13
-0.123550
23
1.124839
33
0.134218
0
3DFACE
8
0
10
-0.000000
20
1.243210
30
0.204938
11
-0.034819
21
1.244769
31
0.155489
12
-0.039847
22
1.185942
32
0.199189
13
-0.039847
23
1.185942
33
0.199189
0
3DFACE
8
0
10
-0.000000
20
1.232007
30
0.214488
11
-0.039847
21
1.185942
31
0.199189
12
-0.000000
22
1.220845
32
0.224059
13
-0.000000
23
1.220845
33
0.224059
0
3DFACE
8
0
10
-0.135716
20
1.190107
30
0.058398
11
-0.134143
21
1.150545
31
0.095672
12
-0.108070
22
1.197465
32
0.092259
13
-0.108070
23
1.197465
33
0.092259
0
3DFACE
8
0
10
0.000000
20
1.299837
30
0.157494
11
-0.044881
21
1.280130
31
0.111678
12
-0.034819
22
1.244769
32
0.155489
13
-0.034819
23
1.244769
33
0.155489
0
3DFACE
8
0
10
-0.500000
20
0.750000
30
0.000000
11
-0.385206
21
0.823916
31
0.024569
12
-0.355882
22
0.869860
32
0.024079
13
-0.355882
23
0.869860
33
0.024079
0
3DFACE
8
0
10
-0.050531
20
0.845341
30
0.508591
11
0.000000
21
0.885206
31
0.541088
12
0.000000
22
0.895062
32
0.530864
13
0.000000
23
0.895062
33
0.530864
0
3DFACE
8
0
10
-0.136393
20
0.862940
30
0.364198
11
-0.176482
21
0.855370
31
0.312233
12
-0.180690
22
0.801305
32
0.359957
13
-0.180690
23
0.801305
33
0.359957
0
3DFACE
8
0
10
0.000000
20
0.985604
30
0.439771
11
-0.054909
21
0.934222
31
0.412328
12
0.000000
22
0.975380
32
0.449811
13
0.000000
23
0.975380
33
0.449811
0
3DFACE
8
0
10
0.000000
20
0.965197
30
0.459871
11
-0.043623
21
0.914467
31
0.448200
12
0.000000
22
0.955056
32
0.469952
13
0.000000
23
0.955056
33
0.469952
0
3DFACE
8
0
10
0.000000
20
0.955056
30
0.469952
11
-0.043623
21
0.914467
31
0.448200
12
0.000000
22
0.944955
32
0.480053
13
0.000000
23
0.944955
33
0.480053
0
3DFACE
8
0
10
-0.078779
20
0.853195
30
0.458913
11
-0.088689
21
0.885157
31
0.412146
12
-0.113706
22
0.836844
32
0.423920
13
-0.113706
23
0.836844
33
0.423920
0
3DFACE
8
0
10
-0.069348
20
0.792177
30
0.536096
11
-0.090711
21
0.812952
31
0.482504
12
-0.109647
22
0.771928
32
0.496597
13
-0.109647
23
0.771928
33
0.496597
0
3DFACE
8
0
10
-0.295064
20
0.620771
30
0.369314
11
-0.291632
21
0.570624
31
0.425286
12
-0.255876
22
0.620364
32
0.429607
13
-0.255876
23
0.620364
33
0.429607
0
3DFACE
8
0
10
-0.397790
20
0.345624
30
0.485830
11
-0.375390
21
0.312305
31
0.551331
12
-0.367346
22
0.384100
32
0.494890
13
-0.367346
23
0.384100
33
0.494890
0
3DFACE
8
0
10
-0.385206
20
0.307397
30
0.541088
11
-0.397790
21
0.345624
31
0.485830
12
-0.395062
22
0.302469
32
0.530864
13
-0.395062
23
0.302469
33
0.530864
0
3DFACE
8
0
10
-0.443840
20
0.428026
30
0.337346
11
-0.433020
21
0.390703
31
0.389940
12
-0.410537
22
0.458361
32
0.357119
13
-0.410537
23
0.458361
33
0.357119
0
3DFACE
8
0
10
-0.433752
20
0.488415
30
0.292464
11
-0.386462
21
0.510070
31
0.341889
12
-0.387959
22
0.551152
32
0.298428
13
-0.387959
23
0.551152
33
0.298428
0
3DFACE
8
0
10
-0.430110
20
0.338880
30
0.444129
11
-0.434894
21
0.282553
31
0.490174
12
-0.424875
22
0.287562
32
0.500316
13
-0.424875
23
0.287562
33
0.500316
0
3DFACE
8
0
10
-0.386462
20
0.510070
30
0.341889
11
-0.339683
21
0.559272
31
0.363438
12
-0.387959
22
0.551152
32
0.298428
13
-0.387959
23
0.551152
33
0.298428
0
3DFACE
8
0
10
-0.516519
20
0.626946
30
0.024569
11
-0.465596
21
0.618858
31
0.111554
12
-0.506173
22
0.641975
32
0.024691
13
-0.506173
23
0.641975
33
0.024691
0
3DFACE
8
0
10
-0.395062
20
0.808642
30
0.024691
11
-0.345059
21
0.831865
31
0.079387
12
-0.385206
22
0.823916
32
0.024569
13
-0.385206
23
0.823916
33
0.024569
0
3DFACE
8
0
10
-0.465197
20
0.267401
30
0.459871
11
-0.430110
21
0.338880
31
0.444129
12
-0.457296
22
0.335884
32
0.406924
13
-0.457296
23
0.335884
33
0.406924
0
3DFACE
8
0
10
-0.397790
20
0.345624
30
0.485830
11
-0.424875
21
0.287562
31
0.500316
12
-0.414896
22
0.292552
32
0.510479
13
-0.414896
23
0.292552
33
0.510479
0
3DFACE
8
0
10
-0.386462
20
0.510070
30
0.341889
11
-0.433752
21
0.488415
31
0.292464
12
-0.410537
22
0.458361
32
0.357119
13
-0.410537
23
0.458361
33
0.357119
0
3DFACE
8
0
10
-0.295064
20
0.620771
30
0.369314
11
-0.246687
21
0.671520
31
0.391575
12
-0.283865
22
0.683214
32
0.323161
13
-0.283865
23
0.683214
33
0.323161
0
3DFACE
8
0
10
-0.535090
20
0.532175
30
0.095883
11
-0.537333
21
0.596949
31
0.024263
12
-0.558310
22
0.567034
32
0.023875
13
-0.558310
23
0.567034
33
0.023875
0
3DFACE
8
0
10
-0.535090
20
0.532175
30
0.095883
11
-0.568860
21
0.552107
31
0.023651
12
-0.579451
22
0.537200
32
0.023406
13
-0.579451
23
0.537200
33
0.023406
0
3DFACE
8
0
10
-0.535090
20
0.532175
30
0.095883
11
-0.496843
21
0.577237
31
0.107008
12
-0.537333
22
0.596949
32
0.024263
13
-0.537333
23
0.596949
33
0.024263
0
3DFACE
8
0
10
-0.455056
20
0.717427
30
0.024997
11
-0.424733
21
0.706909
31
0.083302
12
-0.444955
22
0.732578
32
0.024997
13
-0.444955
23
0.732578
33
0.024997
0
3DFACE
8
0
10
-0.506173
20
0.641975
30
0.024691
11
-0.458709
21
0.662770
31
0.076425
12
-0.495868
22
0.657025
32
0.024793
13
-0.495868
23
0.657025
33
0.024793
0
3DFACE
8
0
10
-0.398066
20
0.747494
30
0.082888
11
-0.424733
21
0.706909
31
0.083302
12
-0.384570
22
0.712778
32
0.139386
13
-0.384570
23
0.712778
33
0.139386
0
3DFACE
8
0
10
-0.537333
20
0.231334
30
0.389879
11
-0.531621
21
0.280452
31
0.351935
12
-0.547801
22
0.226099
32
0.379961
13
-0.547801
23
0.226099
33
0.379961
0
3DFACE
8
0
10
-0.655824
20
0.340620
30
0.115947
11
-0.624394
21
0.395422
31
0.105163
12
-0.661053
22
0.378094
32
0.069913
13
-0.661053
23
0.378094
33
0.069913
0
3DFACE
8
0
10
-0.561930
20
0.255242
30
0.332704
11
-0.590083
21
0.204959
31
0.340496
12
-0.579451
22
0.210274
32
0.350332
13
-0.579451
23
0.210274
33
0.350332
0
3DFACE
8
0
10
-0.546401
20
0.297684
30
0.314358
11
-0.531621
21
0.280452
31
0.351935
12
-0.507253
22
0.337333
32
0.332630
13
-0.507253
23
0.337333
33
0.332630
0
3DFACE
8
0
10
-0.611468
20
0.194266
30
0.320886
11
-0.586611
21
0.258343
31
0.294999
12
-0.619442
22
0.236225
32
0.270175
13
-0.619442
23
0.236225
33
0.270175
0
3DFACE
8
0
10
-0.590083
20
0.204959
30
0.340496
11
-0.561930
21
0.255242
31
0.332704
12
-0.586611
22
0.258343
32
0.294999
13
-0.586611
23
0.258343
33
0.294999
0
3DFACE
8
0
10
-0.114978
20
0.734549
30
0.527591
11
-0.111920
21
0.700773
31
0.568027
12
-0.061526
22
0.765349
32
0.576465
13
-0.061526
23
0.765349
33
0.576465
0
3DFACE
8
0
10
-0.038753
20
0.751927
30
0.625726
11
0.000000
21
0.807826
31
0.623610
12
-0.061526
22
0.765349
32
0.576465
13
-0.061526
23
0.765349
33
0.576465
0
3DFACE
8
0
10
-0.057566
20
0.471217
30
0.922722
11
-0.034821
21
0.520959
31
0.903819
12
-0.065952
22
0.467024
32
0.911764
13
-0.065952
23
0.467024
33
0.911764
0
3DFACE
8
0
10
0.000000
20
0.574380
30
0.900826
11
-0.046012
21
0.543457
31
0.855252
12
-0.034821
22
0.520959
32
0.903819
13
-0.034821
23
0.520959
33
0.903819
0
3DFACE
8
0
10
-0.098249
20
0.546929
30
0.759429
11
-0.136703
21
0.510217
31
0.735100
12
-0.116447
22
0.494375
32
0.787580
13
-0.116447
23
0.494375
33
0.787580
0
3DFACE
8
0
10
-0.033549
20
0.716973
30
0.672630
11
0.000000
21
0.723896
31
0.718008
12
0.000000
22
0.733058
32
0.707438
13
0.000000
23
0.733058
33
0.707438
0
3DFACE
8
0
10
-0.085659
20
0.642058
30
0.673242
11
-0.094825
21
0.605944
31
0.698629
12
-0.051162
22
0.635805
32
0.736682
13
-0.051162
23
0.635805
33
0.736682
0
3DFACE
8
0
10
-0.033549
20
0.716973
30
0.672630
11
0.000000
21
0.760790
31
0.675849
12
-0.038753
22
0.751927
32
0.625726
13
-0.038753
23
0.751927
33
0.625726
0
3DFACE
8
0
10
-0.063350
20
0.681151
30
0.665514
11
-0.085659
21
0.642058
31
0.673242
12
-0.041952
22
0.674389
32
0.707487
13
-0.041952
23
0.674389
33
0.707487
0
3DFACE
8
0
10
-0.212064
20
0.650609
30
0.465895
11
-0.235030
21
0.591897
31
0.490759
12
-0.191302
22
0.617644
32
0.532129
13
-0.191302
23
0.617644
33
0.532129
0
3DFACE
8
0
10
-0.277083
20
0.498170
30
0.520965
11
-0.310856
21
0.452035
31
0.514806
12
-0.281322
22
0.453070
32
0.559733
13
-0.281322
23
0.453070
33
0.559733
0
3DFACE
8
0
10
-0.487602
20
0.537262
30
0.162255
11
-0.442697
21
0.583656
31
0.182687
12
-0.496843
22
0.577237
32
0.107008
13
-0.496843
23
0.577237
33
0.107008
0
3DFACE
8
0
10
0.000000
20
1.122222
30
0.311111
11
-0.044369
21
1.062635
31
0.304096
12
0.000000
22
1.111468
32
0.320886
13
0.000000
23
1.111468
33
0.320886
0
3DFACE
8
0
10
-0.111605
20
1.027762
30
0.240801
11
-0.085592
21
1.018441
31
0.286997
12
-0.061930
22
1.082454
32
0.261067
13
-0.061930
23
1.082454
33
0.261067
0
3DFACE
8
0
10
-0.214774
20
1.102336
30
0.018876
11
-0.226522
21
1.017174
31
0.080395
12
-0.187430
22
1.051345
32
0.107343
13
-0.187430
23
1.051345
33
0.107343
0
3DFACE
8
0
10
-0.212258
20
0.947007
30
0.169153
11
-0.183886
21
0.946203
31
0.212351
12
-0.178261
22
0.999878
32
0.169333
13
-0.178261
23
0.999878
33
0.169333
0
3DFACE
8
0
10
-0.309738
20
0.872140
30
0.093853
11
-0.355882
21
0.869860
31
0.024079
12
-0.345059
22
0.831865
32
0.079387
13
-0.345059
23
0.831865
33
0.079387
0
3DFACE
8
0
10
-0.259299
20
0.976212
30
0.069509
11
-0.242738
21
0.953008
31
0.117251
12
-0.226522
22
1.017174
32
0.080395
13
-0.226522
23
1.017174
33
0.080395
0
3DFACE
8
0
10
-0.161888
20
1.144726
30
0.059973
11
-0.205693
21
1.117998
31
0.018365
12
-0.170369
22
1.100110
32
0.087796
13
-0.170369
23
1.100110
33
0.087796
0
3DFACE
8
0
10
-0.039847
20
1.185942
30
0.199189
11
0.000000
21
1.198643
31
0.243261
12
-0.000000
22
1.209723
32
0.233650
13
-0.000000
23
1.209723
33
0.233650
0
3DFACE
8
0
10
-0.152066
20
1.212397
30
0.014876
11
-0.063966
21
1.311648
31
0.058639
12
-0.039355
22
1.362345
32
0.052091
13
-0.039355
23
1.362345
33
0.052091
0
3DFACE
8
0
10
-0.000000
20
1.357484
30
0.110560
11
-0.033658
21
1.325670
31
0.089729
12
0.000000
22
1.345873
32
0.119906
13
0.000000
23
1.345873
33
0.119906
0
3DFACE
8
0
10
-0.061526
20
0.765349
30
0.576465
11
-0.035437
21
0.824681
31
0.552431
12
-0.069348
22
0.792177
32
0.536096
13
-0.069348
23
0.792177
33
0.536096
0
3DFACE
8
0
10
-0.033549
20
0.716973
30
0.672630
11
-0.038753
21
0.751927
31
0.625726
12
-0.059404
22
0.712199
32
0.637358
13
-0.059404
23
0.712199
33
0.637358
0
3DFACE
8
0
10
0.000000
20
0.742261
30
0.696888
11
-0.033549
21
0.716973
31
0.672630
12
0.000000
22
0.733058
32
0.707438
13
0.000000
23
0.733058
33
0.707438
0
3DFACE
8
0
10
-0.145919
20
1.036617
30
0.182535
11
-0.142029
21
1.079714
31
0.148288
12
-0.187430
22
1.051345
32
0.107343
13
-0.187430
23
1.051345
33
0.107343
0
3DFACE
8
0
10
-0.039847
20
1.185942
30
0.199189
11
-0.000000
21
1.187603
31
0.252893
12
0.000000
22
1.198643
32
0.243261
13
0.000000
23
1.198643
33
0.243261
0
3DFACE
8
0
10
-0.311092
20
0.401490
30
0.564411
11
-0.346189
21
0.326905
31
0.582185
12
-0.336537
22
0.331731
32
0.592511
13
-0.336537
23
0.331731
33
0.592511
0
3DFACE
8
0
10
-0.470548
20
0.428697
30
0.297080
11
-0.443840
21
0.428026
31
0.337346
12
-0.433752
22
0.488415
32
0.292464
13
-0.433752
23
0.488415
33
0.292464
0
3DFACE
8
0
10
-0.433752
20
0.488415
30
0.292464
11
-0.442061
21
0.531811
31
0.236363
12
-0.485227
22
0.458115
32
0.246026
13
-0.485227
23
0.458115
33
0.246026
0
3DFACE
8
0
10
-0.465596
20
0.618858
30
0.111554
11
-0.427194
21
0.668900
31
0.118772
12
-0.458709
22
0.662770
32
0.076425
13
-0.458709
23
0.662770
33
0.076425
0
3DFACE
8
0
10
-0.340258
20
0.454947
30
0.466760
11
-0.304379
21
0.506647
31
0.470230
12
-0.328729
22
0.517658
32
0.421891
13
-0.328729
23
0.517658
33
0.421891
0
3DFACE
8
0
10
-0.332375
20
0.668840
30
0.263899
11
-0.337109
21
0.614543
31
0.311624
12
-0.283865
22
0.683214
32
0.323161
13
-0.283865
23
0.683214
33
0.323161
0
3DFACE
8
0
10
-0.622222
20
0.477778
30
0.022222
11
-0.616292
21
0.434745
31
0.076289
12
-0.575131
22
0.483031
32
0.086990
13
-0.575131
23
0.483031
33
0.086990
0
3DFACE
8
0
10
-0.442697
20
0.583656
30
0.182687
11
-0.417317
21
0.642339
31
0.161244
12
-0.465596
22
0.618858
32
0.111554
13
-0.465596
23
0.618858
33
0.111554
0
3DFACE
8
0
10
-0.417317
20
0.642339
30
0.161244
11
-0.442697
21
0.583656
31
0.182687
12
-0.390062
22
0.628836
32
0.216625
13
-0.390062
23
0.628836
33
0.216625
0
3DFACE
8
0
10
-0.442697
20
0.583656
30
0.182687
11
-0.487602
21
0.537262
31
0.162255
12
-0.442061
22
0.531811
32
0.236363
13
-0.442061
23
0.531811
33
0.236363
0
3DFACE
8
0
10
-0.531621
20
0.280452
30
0.351935
11
-0.507805
21
0.290606
31
0.376468
12
-0.507253
22
0.337333
32
0.332630
13
-0.507253
23
0.337333
33
0.332630
0
3DFACE
8
0
10
-0.506173
20
0.246914
30
0.419753
11
-0.507805
21
0.290606
31
0.376468
12
-0.516519
22
0.241741
32
0.409775
13
-0.516519
23
0.241741
33
0.409775
0
3DFACE
8
0
10
-0.051162
20
0.635805
30
0.736682
11
0.000000
21
0.669779
31
0.781859
12
0.000000
22
0.678696
32
0.771166
13
0.000000
23
0.678696
33
0.771166
0
3DFACE
8
0
10
-0.082569
20
0.588772
30
0.738314
11
-0.051162
21
0.635805
31
0.736682
12
-0.094825
22
0.605944
32
0.698629
13
-0.094825
23
0.605944
33
0.698629
0
3DFACE
8
0
10
-0.041952
20
0.674389
30
0.707487
11
-0.033549
21
0.716973
31
0.672630
12
-0.063350
22
0.681151
32
0.665514
13
-0.063350
23
0.681151
33
0.665514
0
3DFACE
8
0
10
0.000000
20
0.723896
30
0.718008
11
-0.041952
21
0.674389
31
0.707487
12
0.000000
22
0.714774
32
0.728599
13
0.000000
23
0.714774
33
0.728599
0
3DFACE
8
0
10
-0.281270
20
0.407472
30
0.605312
11
-0.270115
21
0.364942
31
0.665361
12
-0.245523
22
0.428333
32
0.641545
13
-0.245523
23
0.428333
33
0.641545
0
3DFACE
8
0
10
-0.045342
20
0.997845
30
0.363958
11
0.000000
21
1.026905
31
0.399816
12
0.000000
22
1.037333
32
0.389879
13
0.000000
23
1.037333
33
0.389879
0
3DFACE
8
0
10
-0.211779
20
0.893532
30
0.221886
11
-0.245585
21
0.856382
31
0.207567
12
-0.224937
22
0.827574
32
0.267265
13
-0.224937
23
0.827574
33
0.267265
0
3DFACE
8
0
10
-0.052059
20
1.022635
30
0.330820
11
0.000000
21
1.047801
31
0.379961
12
0.000000
22
1.058310
32
0.370064
13
0.000000
23
1.058310
33
0.370064
0
3DFACE
8
0
10
0.000000
20
1.111468
30
0.320886
11
-0.044369
21
1.062635
31
0.304096
12
0.000000
22
1.100755
32
0.330681
13
0.000000
23
1.100755
33
0.330681
0
3DFACE
8
0
10
-0.000000
20
0.924875
30
0.500316
11
-0.047068
21
0.882960
31
0.475029
12
0.000000
22
0.914896
32
0.510479
13
0.000000
23
0.914896
33
0.510479
0
3DFACE
8
0
10
-0.136393
20
0.862940
30
0.364198
11
-0.135605
21
0.912058
31
0.316820
12
-0.176482
22
0.855370
32
0.312233
13
-0.176482
23
0.855370
33
0.312233
0
3DFACE
8
0
10
-0.000000
20
1.187603
30
0.252893
11
-0.039847
21
1.185942
31
0.199189
12
-0.053542
22
1.130730
32
0.229009
13
-0.053542
23
1.130730
33
0.229009
0
3DFACE
8
0
10
-0.000000
20
1.322773
30
0.138659
11
-0.044881
21
1.280130
31
0.111678
12
0.000000
22
1.311285
32
0.148067
13
0.000000
23
1.311285
33
0.148067
0
3DFACE
8
0
10
0.000000
20
1.334303
30
0.129273
11
-0.033658
21
1.325670
31
0.089729
12
-0.000000
22
1.322773
32
0.138659
13
-0.000000
23
1.322773
33
0.138659
0
3DFACE
8
0
10
-0.034819
20
1.244769
30
0.155489
11
-0.000000
21
1.243210
31
0.204938
12
0.000000
22
1.254454
32
0.195409
13
0.000000
23
1.254454
33
0.195409
0
3DFACE
8
0
10
-0.039847
20
1.185942
30
0.199189
11
-0.034819
21
1.244769
31
0.155489
12
-0.053445
22
1.215154
32
0.154838
13
-0.053445
23
1.215154
33
0.154838
0
3DFACE
8
0
10
-0.114978
20
0.734549
30
0.527591
11
-0.151830
21
0.670766
31
0.537948
12
-0.111920
22
0.700773
32
0.568027
13
-0.111920
23
0.700773
33
0.568027
0
3DFACE
8
0
10
-0.035437
20
0.824681
30
0.552431
11
-0.061526
21
0.765349
31
0.576465
12
0.000000
22
0.826926
32
0.602857
13
0.000000
23
0.826926
33
0.602857
0
3DFACE
8
0
10
0.000000
20
0.798337
30
0.634017
11
-0.038753
21
0.751927
31
0.625726
12
-0.000000
22
0.788889
32
0.644444
13
-0.000000
23
0.788889
33
0.644444
0
3DFACE
8
0
10
-0.496843
20
0.577237
30
0.107008
11
-0.535090
21
0.532175
31
0.095883
12
-0.487602
22
0.537262
32
0.162255
13
-0.487602
23
0.537262
33
0.162255
0
3DFACE
8
0
10
-0.035437
20
0.824681
30
0.552431
11
-0.000000
21
0.836537
31
0.592511
12
0.000000
22
0.846189
32
0.582185
13
0.000000
23
0.846189
33
0.582185
0
3DFACE
8
0
10
-0.242738
20
0.953008
30
0.117251
11
-0.208497
21
0.995671
31
0.128147
12
-0.226522
22
1.017174
32
0.080395
13
-0.226522
23
1.017174
33
0.080395
0
3DFACE
8
0
10
-0.212258
20
0.947007
30
0.169153
11
-0.243618
21
0.901574
31
0.166034
12
-0.211779
22
0.893532
32
0.221886
13
-0.211779
23
0.893532
33
0.221886
0
3DFACE
8
0
10
-0.098392
20
1.172660
30
0.127927
11
-0.123550
21
1.124839
31
0.134218
12
-0.078663
22
1.150344
32
0.175958
13
-0.078663
23
1.150344
33
0.175958
0
3DFACE
8
0
10
-0.113706
20
0.836844
30
0.423920
11
-0.136393
21
0.862940
31
0.364198
12
-0.148713
22
0.810208
32
0.398807
13
-0.148713
23
0.810208
33
0.398807
0
3DFACE
8
0
10
-0.291632
20
0.570624
30
0.425286
11
-0.328729
21
0.517658
31
0.421891
12
-0.304379
22
0.506647
32
0.470230
13
-0.304379
23
0.506647
33
0.470230
0
3DFACE
8
0
10
-0.389059
20
0.593563
30
0.253945
11
-0.442061
21
0.531811
31
0.236363
12
-0.387959
22
0.551152
32
0.298428
13
-0.387959
23
0.551152
33
0.298428
0
3DFACE
8
0
10
-0.389059
20
0.593563
30
0.253945
11
-0.442697
21
0.583656
31
0.182687
12
-0.442061
22
0.531811
32
0.236363
13
-0.442061
23
0.531811
33
0.236363
0
3DFACE
8
0
10
-0.061930
20
1.082454
30
0.261067
11
-0.053542
21
1.130730
31
0.229009
12
-0.101281
22
1.076035
32
0.210842
13
-0.101281
23
1.076035
33
0.210842
0
3DFACE
8
0
10
-0.000000
20
1.500000
30
0.000000
11
-0.500000
21
0.750000
31
0.000000
12
-0.219575
22
1.130848
32
0.009947
13
-0.219575
23
1.130848
33
0.009947
0
3DFACE
8
0
10
-0.196653
20
1.133680
30
0.017835
11
-0.181384
21
1.187268
31
0.010164
12
-0.000000
22
1.500000
32
0.000000
13
-0.000000
23
1.500000
33
0.000000
0
3DFACE
8
0
10
-0.152066
20
1.212397
30
0.014876
11
-0.000000
21
1.500000
31
0.000000
12
-0.181384
22
1.187268
32
0.010164
13
-0.181384
23
1.187268
33
0.010164
0
3DFACE
8
0
10
-0.196653
20
1.133680
30
0.017835
11
-0.000000
21
1.500000
31
0.000000
12
-0.219575
22
1.130848
32
0.009947
13
-0.219575
23
1.130848
33
0.009947
0
3DFACE
8
0
10
-0.695456
20
0.413731
30
0.010771
11
-0.665646
21
0.418682
31
0.020712
12
-0.500000
22
0.750000
32
0.000000
13
-0.500000
23
0.750000
33
0.000000
0
3DFACE
8
0
10
-0.495868
20
0.657025
30
0.024793
11
-0.522431
21
0.673680
31
0.010668
12
-0.506173
22
0.641975
32
0.024691
13
-0.506173
23
0.641975
33
0.024691
0
3DFACE
8
0
10
-0.500000
20
0.750000
30
0.000000
11
-0.251505
21
1.039894
31
0.020712
12
-0.214774
22
1.102336
32
0.018876
13
-0.214774
23
1.102336
33
0.018876
0
3DFACE
8
0
10
-0.219575
20
1.130848
30
0.009947
11
-0.214774
21
1.102336
31
0.018876
12
-0.205693
22
1.117998
32
0.018365
13
-0.205693
23
1.117998
33
0.018365
0
3DFACE
8
0
10
-0.181384
20
1.187268
30
0.010164
11
-0.196653
21
1.133680
31
0.017835
12
-0.169779
22
1.180849
32
0.016121
13
-0.169779
23
1.180849
33
0.016121
0
3DFACE
8
0
10
-0.687603
20
0.156198
30
0.252893
11
-0.692413
21
0.204762
31
0.199867
12
-0.698643
22
0.150679
32
0.243261
13
-0.698643
23
0.150679
33
0.243261
0
3DFACE
8
0
10
-0.690292
20
0.284892
30
0.123632
11
-0.653990
21
0.302593
31
0.156921
12
-0.655824
22
0.340620
32
0.115947
13
-0.655824
23
0.340620
33
0.115947
0
3DFACE
8
0
10
-0.500000
20
0.750000
30
0.000000
11
-0.317355
21
0.931405
31
0.023140
12
-0.251505
22
1.039894
32
0.020712
13
-0.251505
23
1.039894
33
0.020712
0
3DFACE
8
0
10
-0.317601
20
0.732700
30
0.221830
11
-0.349480
21
0.709283
31
0.196832
12
-0.332375
22
0.668840
32
0.263899
13
-0.332375
23
0.668840
33
0.263899
0
3DFACE
8
0
10
-0.342164
20
0.758630
30
0.158010
11
-0.384570
21
0.712778
31
0.139386
12
-0.349480
22
0.709283
32
0.196832
13
-0.349480
23
0.709283
33
0.196832
0
3DFACE
8
0
10
-0.665646
20
0.418682
30
0.020712
11
-0.695456
21
0.413731
31
0.010771
12
-0.676604
22
0.403959
32
0.020284
13
-0.676604
23
0.403959
33
0.020284
0
3DFACE
8
0
10
-0.661053
20
0.378094
30
0.069913
11
-0.696886
21
0.324053
31
0.074474
12
-0.655824
22
0.340620
32
0.115947
13
-0.655824
23
0.340620
33
0.115947
0
3DFACE
8
0
10
-0.653990
20
0.302593
30
0.156921
11
-0.629654
21
0.291549
31
0.202207
12
-0.617639
22
0.342035
32
0.169130
13
-0.617639
23
0.342035
33
0.169130
0
3DFACE
8
0
10
-0.038753
20
0.751927
30
0.625726
11
0.000000
21
0.760790
31
0.675849
12
0.000000
22
0.770115
32
0.665361
13
0.000000
23
0.770115
33
0.665361
0
3DFACE
8
0
10
0.000000
20
0.751505
30
0.686359
11
-0.033549
21
0.716973
31
0.672630
12
0.000000
22
0.742261
32
0.696888
13
0.000000
23
0.742261
33
0.696888
0
3DFACE
8
0
10
-0.128501
20
0.600201
30
0.650121
11
-0.155049
21
0.555926
31
0.654965
12
-0.122530
22
0.559910
32
0.704013
13
-0.122530
23
0.559910
33
0.704013
0
3DFACE
8
0
10
-0.094825
20
0.605944
30
0.698629
11
-0.122530
21
0.559910
31
0.704013
12
-0.082569
22
0.588772
32
0.738314
13
-0.082569
23
0.588772
33
0.738314
0
3DFACE
8
0
10
-0.221745
20
0.491298
30
0.615337
11
-0.254689
21
0.455953
31
0.598843
12
-0.245523
22
0.428333
32
0.641545
13
-0.245523
23
0.428333
33
0.641545
0
3DFACE
8
0
10
-0.245063
20
0.502191
30
0.567042
11
-0.221745
21
0.491298
31
0.615337
12
-0.210172
22
0.555216
32
0.567467
13
-0.210172
23
0.555216
33
0.567467
0
3DFACE
8
0
10
-0.516519
20
0.626946
30
0.024569
11
-0.645664
21
0.482384
31
0.012280
12
-0.537333
22
0.596949
32
0.024263
13
-0.537333
23
0.596949
33
0.024263
0
3DFACE
8
0
10
-0.434894
20
0.747750
30
0.024977
11
-0.500000
21
0.750000
31
0.000000
12
-0.444955
22
0.732578
32
0.024997
13
-0.444955
23
0.732578
33
0.024997
0
3DFACE
8
0
10
-0.619442
20
0.236225
30
0.270175
11
-0.654729
21
0.172635
31
0.281910
12
-0.643853
22
0.178074
32
0.291623
13
-0.643853
23
0.178074
33
0.291623
0
3DFACE
8
0
10
-0.586611
20
0.258343
30
0.294999
11
-0.611468
21
0.194266
31
0.320886
12
-0.600755
22
0.199622
32
0.330681
13
-0.600755
23
0.199622
33
0.330681
0
3DFACE
8
0
10
-0.619442
20
0.236225
30
0.270175
11
-0.643853
21
0.178074
31
0.291623
12
-0.633017
22
0.183491
32
0.301357
13
-0.633017
23
0.183491
33
0.301357
0
3DFACE
8
0
10
-0.619442
20
0.236225
30
0.270175
11
-0.633017
21
0.183491
31
0.301357
12
-0.622222
22
0.188889
32
0.311111
13
-0.622222
23
0.188889
33
0.311111
0
3DFACE
8
0
10
-0.535090
20
0.532175
30
0.095883
11
-0.558310
21
0.567034
31
0.023875
12
-0.568860
22
0.552107
32
0.023651
13
-0.568860
23
0.552107
33
0.023651
0
3DFACE
8
0
10
-0.575131
20
0.483031
30
0.086990
11
-0.579451
21
0.537200
31
0.023406
12
-0.590083
22
0.522314
32
0.023140
13
-0.590083
23
0.522314
33
0.023140
0
3DFACE
8
0
10
-0.609099
20
0.381635
30
0.141458
11
-0.655824
21
0.340620
31
0.115947
12
-0.617639
22
0.342035
32
0.169130
13
-0.617639
23
0.342035
33
0.169130
0
3DFACE
8
0
10
-0.617639
20
0.342035
30
0.169130
11
-0.655824
21
0.340620
31
0.115947
12
-0.653990
22
0.302593
32
0.156921
13
-0.653990
23
0.302593
33
0.156921
0
3DFACE
8
0
10
-0.754339
20
0.150022
30
0.169283
11
-0.754454
21
0.122773
31
0.195409
12
-0.743210
22
0.128395
32
0.204938
13
-0.743210
23
0.128395
33
0.204938
0
3DFACE
8
0
10
-0.777064
20
0.111468
30
0.176411
11
-0.754339
21
0.150022
31
0.169283
12
-0.781362
22
0.147763
32
0.135422
13
-0.781362
23
0.147763
33
0.135422
0
3DFACE
8
0
10
-0.506583
20
0.390268
30
0.281983
11
-0.473139
21
0.375531
31
0.345430
12
-0.470548
22
0.428697
32
0.297080
13
-0.470548
23
0.428697
33
0.297080
0
3DFACE
8
0
10
-0.531621
20
0.280452
30
0.351935
11
-0.526905
21
0.236547
31
0.399816
12
-0.507805
22
0.290606
32
0.376468
13
-0.507805
23
0.290606
33
0.376468
0
3DFACE
8
0
10
-0.727202
20
0.274941
30
0.082198
11
-0.743210
21
0.316049
31
0.017284
12
-0.709723
22
0.359912
32
0.018876
13
-0.709723
23
0.359912
33
0.018876
0
3DFACE
8
0
10
-0.717358
20
0.231114
30
0.139830
11
-0.772003
21
0.184517
31
0.111677
12
-0.732476
22
0.184519
32
0.165117
13
-0.732476
23
0.184519
33
0.165117
0
3DFACE
8
0
10
0.000000
20
0.634517
30
0.824834
11
-0.038357
21
0.580074
31
0.824372
12
0.000000
22
0.625803
32
0.835629
13
0.000000
23
0.625803
33
0.835629
0
3DFACE
8
0
10
-0.046012
20
0.543457
30
0.855252
11
-0.064985
21
0.502087
31
0.870808
12
-0.034821
22
0.520959
32
0.903819
13
-0.034821
23
0.520959
33
0.903819
0
3DFACE
8
0
10
-0.210848
20
0.795311
30
0.320687
11
-0.248021
21
0.753007
31
0.307079
12
-0.225110
22
0.731254
32
0.363739
13
-0.225110
23
0.731254
33
0.363739
0
3DFACE
8
0
10
-0.281451
20
0.744854
30
0.264605
11
-0.248021
21
0.753007
31
0.307079
12
-0.224937
22
0.827574
32
0.267265
13
-0.224937
23
0.827574
33
0.267265
0
3DFACE
8
0
10
-0.035437
20
0.824681
30
0.552431
11
0.000000
21
0.826926
31
0.602857
12
-0.000000
22
0.836537
32
0.592511
13
-0.000000
23
0.836537
33
0.592511
0
3DFACE
8
0
10
-0.035437
20
0.824681
30
0.552431
11
0.000000
21
0.846189
31
0.582185
12
0.000000
22
0.855882
32
0.571880
13
0.000000
23
0.855882
33
0.571880
0
3DFACE
8
0
10
0.000000
20
0.625803
30
0.835629
11
-0.038357
21
0.580074
31
0.824372
12
0.000000
22
0.617131
32
0.846444
13
0.000000
23
0.617131
33
0.846444
0
3DFACE
8
0
10
-0.038357
20
0.580074
30
0.824372
11
-0.050858
21
0.599237
31
0.779937
12
-0.074678
22
0.543960
32
0.803584
13
-0.074678
23
0.543960
33
0.803584
0
3DFACE
8
0
10
-0.465197
20
0.702296
30
0.024977
11
-0.424733
21
0.706909
31
0.083302
12
-0.455056
22
0.717427
32
0.024997
13
-0.455056
23
0.717427
33
0.024997
0
3DFACE
8
0
10
-0.424733
20
0.706909
30
0.083302
11
-0.398066
21
0.747494
31
0.082888
12
-0.434894
22
0.747750
32
0.024977
13
-0.434894
23
0.747750
33
0.024977
0
3DFACE
8
0
10
-0.174619
20
0.905192
30
0.265916
11
-0.211779
21
0.893532
31
0.221886
12
-0.224937
22
0.827574
32
0.267265
13
-0.224937
23
0.827574
33
0.267265
0
3DFACE
8
0
10
-0.183886
20
0.946203
30
0.212351
11
-0.174619
21
0.905192
31
0.265916
12
-0.150723
22
0.980231
32
0.228702
13
-0.150723
23
0.980231
33
0.228702
0
3DFACE
8
0
10
-0.619442
20
0.236225
30
0.270175
11
-0.586611
21
0.258343
31
0.294999
12
-0.601925
22
0.289439
32
0.243414
13
-0.601925
23
0.289439
33
0.243414
0
3DFACE
8
0
10
-0.555088
20
0.349625
30
0.251443
11
-0.585056
21
0.345864
31
0.212028
12
-0.601925
22
0.289439
32
0.243414
13
-0.601925
23
0.289439
33
0.243414
0
3DFACE
8
0
10
-0.609099
20
0.381635
30
0.141458
11
-0.576099
21
0.437343
31
0.132792
12
-0.624394
22
0.395422
32
0.105163
13
-0.624394
23
0.395422
33
0.105163
0
3DFACE
8
0
10
-0.617639
20
0.342035
30
0.169130
11
-0.572844
21
0.395145
31
0.180449
12
-0.609099
22
0.381635
32
0.141458
13
-0.609099
23
0.381635
33
0.141458
0
3DFACE
8
0
10
-0.585056
20
0.345864
30
0.212028
11
-0.555088
21
0.349625
31
0.251443
12
-0.534513
22
0.402326
32
0.229145
13
-0.534513
23
0.402326
33
0.229145
0
3DFACE
8
0
10
-0.601925
20
0.289439
30
0.243414
11
-0.629654
21
0.291549
31
0.202207
12
-0.649731
22
0.233711
32
0.230564
13
-0.649731
23
0.233711
33
0.230564
0
3DFACE
8
0
10
-0.709723
20
0.359912
30
0.018876
11
-0.661053
21
0.378094
31
0.069913
12
-0.687603
22
0.389256
32
0.019835
13
-0.687603
23
0.389256
33
0.019835
0
3DFACE
8
0
10
-0.404959
20
0.793388
30
0.024793
11
-0.398066
21
0.747494
31
0.082888
12
-0.365410
22
0.780295
32
0.100107
13
-0.365410
23
0.780295
33
0.100107
0
3DFACE
8
0
10
-0.483714
20
0.317884
30
0.385476
11
-0.457296
21
0.335884
31
0.406924
12
-0.473139
22
0.375531
32
0.345430
13
-0.473139
23
0.375531
33
0.345430
0
3DFACE
8
0
10
-0.495868
20
0.252066
30
0.429752
11
-0.507805
21
0.290606
31
0.376468
12
-0.506173
22
0.246914
32
0.419753
13
-0.506173
23
0.246914
33
0.419753
0
3DFACE
8
0
10
-0.754339
20
0.150022
30
0.169283
11
-0.777064
21
0.111468
31
0.176411
12
-0.765738
22
0.117131
32
0.185899
13
-0.765738
23
0.117131
33
0.185899
0
3DFACE
8
0
10
-0.743210
20
0.316049
30
0.017284
11
-0.727202
21
0.274941
31
0.082198
12
-0.696886
22
0.324053
32
0.074474
13
-0.696886
23
0.324053
33
0.074474
0
3DFACE
8
0
10
-0.246687
20
0.671520
30
0.391575
11
-0.225110
21
0.731254
31
0.363739
12
-0.283865
22
0.683214
32
0.323161
13
-0.283865
23
0.683214
33
0.323161
0
3DFACE
8
0
10
-0.255876
20
0.620364
30
0.429607
11
-0.212064
21
0.650609
31
0.465895
12
-0.246687
22
0.671520
32
0.391575
13
-0.246687
23
0.671520
33
0.391575
0
3DFACE
8
0
10
-0.246687
20
0.671520
30
0.391575
11
-0.199305
21
0.703605
31
0.431051
12
-0.225110
22
0.731254
32
0.363739
13
-0.225110
23
0.731254
33
0.363739
0
3DFACE
8
0
10
-0.199305
20
0.703605
30
0.431051
11
-0.246687
21
0.671520
31
0.391575
12
-0.212064
22
0.650609
32
0.465895
13
-0.212064
23
0.650609
33
0.465895
0
3DFACE
8
0
10
-0.219575
20
1.130848
30
0.009947
11
-0.205693
21
1.117998
31
0.018365
12
-0.196653
22
1.133680
32
0.017835
13
-0.196653
23
1.133680
33
0.017835
0
3DFACE
8
0
10
-0.434894
20
0.747750
30
0.024977
11
-0.436354
21
0.802986
31
0.010621
12
-0.500000
22
0.750000
32
0.000000
13
-0.500000
23
0.750000
33
0.000000
0
3DFACE
8
0
10
-0.385206
20
0.823916
30
0.024569
11
-0.436354
21
0.802986
31
0.010621
12
-0.395062
22
0.808642
32
0.024691
13
-0.395062
23
0.808642
33
0.024691
0
3DFACE
8
0
10
-0.385206
20
0.823916
30
0.024569
11
-0.500000
21
0.750000
31
0.000000
12
-0.436354
22
0.802986
32
0.010621
13
-0.436354
23
0.802986
33
0.010621
0
3DFACE
8
0
10
-0.125803
20
0.437098
30
0.835629
11
-0.116447
21
0.494375
31
0.787580
12
-0.134517
22
0.432742
32
0.824834
13
-0.134517
23
0.432742
33
0.824834
0
3DFACE
8
0
10
-0.074678
20
0.543960
30
0.803584
11
-0.098249
21
0.546929
31
0.759429
12
-0.116447
22
0.494375
32
0.787580
13
-0.116447
23
0.494375
33
0.787580
0
3DFACE
8
0
10
-0.136703
20
0.510217
30
0.735100
11
-0.181109
21
0.468023
31
0.706072
12
-0.153104
22
0.465296
32
0.756302
13
-0.153104
23
0.465296
33
0.756302
0
3DFACE
8
0
10
-0.196653
20
0.401673
30
0.749842
11
-0.181109
21
0.468023
31
0.706072
12
-0.205693
22
0.397153
32
0.739210
13
-0.205693
23
0.397153
33
0.739210
0
3DFACE
8
0
10
-0.190295
20
0.515790
30
0.640440
11
-0.210172
21
0.555216
31
0.567467
12
-0.221745
22
0.491298
32
0.615337
13
-0.221745
23
0.491298
33
0.615337
0
3DFACE
8
0
10
-0.212692
20
0.452434
30
0.670224
11
-0.233058
21
0.383471
31
0.707438
12
-0.223896
22
0.388052
32
0.718008
13
-0.223896
23
0.388052
33
0.718008
0
3DFACE
8
0
10
-0.044369
20
1.062635
30
0.304096
11
0.000000
21
1.122222
31
0.311111
12
-0.061930
22
1.082454
32
0.261067
13
-0.061930
23
1.082454
33
0.261067
0
3DFACE
8
0
10
-0.111605
20
1.027762
30
0.240801
11
-0.145919
21
1.036617
31
0.182535
12
-0.150723
22
0.980231
32
0.228702
13
-0.150723
23
0.980231
33
0.228702
0
3DFACE
8
0
10
-0.169779
20
1.180849
30
0.016121
11
-0.135716
21
1.190107
31
0.058398
12
-0.160902
22
1.196613
32
0.015509
13
-0.160902
23
1.196613
33
0.015509
0
3DFACE
8
0
10
-0.108070
20
1.197465
30
0.092259
11
-0.107499
21
1.233981
31
0.061532
12
-0.135716
22
1.190107
32
0.058398
13
-0.135716
23
1.190107
33
0.058398
0
3DFACE
8
0
10
-0.050531
20
0.845341
30
0.508591
11
-0.047068
21
0.882960
31
0.475029
12
-0.078779
22
0.853195
32
0.458913
13
-0.078779
23
0.853195
33
0.458913
0
3DFACE
8
0
10
-0.047068
20
0.882960
30
0.475029
11
0.000000
21
0.895062
31
0.530864
12
0.000000
22
0.904959
32
0.520661
13
0.000000
23
0.904959
33
0.520661
0
3DFACE
8
0
10
-0.709723
20
0.359912
30
0.018876
11
-0.793010
21
0.204169
31
0.063632
12
-0.764974
22
0.246827
32
0.058522
13
-0.764974
23
0.246827
33
0.058522
0
3DFACE
8
0
10
-0.781362
20
0.147763
30
0.135422
11
-0.799837
21
0.100082
31
0.157494
12
-0.788430
22
0.105785
32
0.166942
13
-0.788430
23
0.105785
33
0.166942
0
3DFACE
8
0
10
-0.616292
20
0.434745
30
0.076289
11
-0.665646
21
0.418682
31
0.020712
12
-0.661053
22
0.378094
32
0.069913
13
-0.661053
23
0.378094
33
0.069913
0
3DFACE
8
0
10
-0.576099
20
0.437343
30
0.132792
11
-0.609099
21
0.381635
31
0.141458
12
-0.572844
22
0.395145
32
0.180449
13
-0.572844
23
0.395145
33
0.180449
0
3DFACE
8
0
10
-0.483714
20
0.317884
30
0.385476
11
-0.475380
21
0.262310
31
0.449811
12
-0.457296
22
0.335884
32
0.406924
13
-0.457296
23
0.335884
33
0.406924
0
3DFACE
8
0
10
-0.475380
20
0.262310
30
0.449811
11
-0.483714
21
0.317884
31
0.385476
12
-0.485604
22
0.257198
32
0.439771
13
-0.485604
23
0.257198
33
0.439771
0
3DFACE
8
0
10
-0.337109
20
0.614543
30
0.311624
11
-0.339683
21
0.559272
31
0.363438
12
-0.295064
22
0.620771
32
0.369314
13
-0.295064
23
0.620771
33
0.369314
0
3DFACE
8
0
10
-0.291632
20
0.570624
30
0.425286
11
-0.295064
21
0.620771
31
0.369314
12
-0.339683
22
0.559272
32
0.363438
13
-0.339683
23
0.559272
33
0.363438
0
3DFACE
8
0
10
-0.493530
20
0.493106
30
0.198394
11
-0.533182
21
0.444944
31
0.188316
12
-0.485227
22
0.458115
32
0.246026
13
-0.485227
23
0.458115
33
0.246026
0
3DFACE
8
0
10
-0.533182
20
0.444944
30
0.188316
11
-0.493530
21
0.493106
31
0.198394
12
-0.534329
22
0.488367
32
0.142343
13
-0.534329
23
0.488367
33
0.142343
0
3DFACE
8
0
10
-0.732007
20
0.133997
30
0.214488
11
-0.754339
21
0.150022
31
0.169283
12
-0.743210
22
0.128395
32
0.204938
13
-0.743210
23
0.128395
33
0.204938
0
3DFACE
8
0
10
-0.751522
20
0.227197
30
0.096885
11
-0.717358
21
0.231114
31
0.139830
12
-0.727202
22
0.274941
32
0.082198
13
-0.727202
23
0.274941
33
0.082198
0
3DFACE
8
0
10
-0.698643
20
0.150679
30
0.243261
11
-0.692413
21
0.204762
31
0.199867
12
-0.709723
22
0.145138
32
0.233650
13
-0.709723
23
0.145138
33
0.233650
0
3DFACE
8
0
10
-0.585056
20
0.345864
30
0.212028
11
-0.572844
21
0.395145
31
0.180449
12
-0.617639
22
0.342035
32
0.169130
13
-0.617639
23
0.342035
33
0.169130
0
3DFACE
8
0
10
-0.585056
20
0.345864
30
0.212028
11
-0.617639
21
0.342035
31
0.169130
12
-0.629654
22
0.291549
32
0.202207
13
-0.629654
23
0.291549
33
0.202207
0
3DFACE
8
0
10
-0.692413
20
0.204762
30
0.199867
11
-0.720845
21
0.139578
31
0.224059
12
-0.709723
22
0.145138
32
0.233650
13
-0.709723
23
0.145138
33
0.233650
0
3DFACE
8
0
10
-0.673555
20
0.254224
30
0.177500
11
-0.717358
21
0.231114
31
0.139830
12
-0.692413
22
0.204762
32
0.199867
13
-0.692413
23
0.204762
33
0.199867
0
3DFACE
8
0
10
-0.649731
20
0.233711
30
0.230564
11
-0.676604
21
0.161698
31
0.262545
12
-0.665646
22
0.167177
32
0.272217
13
-0.665646
23
0.167177
33
0.272217
0
3DFACE
8
0
10
-0.654729
20
0.172635
30
0.281910
11
-0.619442
21
0.236225
31
0.270175
12
-0.649731
22
0.233711
32
0.230564
13
-0.649731
23
0.233711
33
0.230564
0
3DFACE
8
0
10
-0.653990
20
0.302593
30
0.156921
11
-0.690292
21
0.284892
31
0.123632
12
-0.673555
22
0.254224
32
0.177500
13
-0.673555
23
0.254224
33
0.177500
0
3DFACE
8
0
10
-0.727202
20
0.274941
30
0.082198
11
-0.690292
21
0.284892
31
0.123632
12
-0.696886
22
0.324053
32
0.074474
13
-0.696886
23
0.324053
33
0.074474
0
3DFACE
8
0
10
-0.187654
20
0.406173
30
0.760494
11
-0.181109
21
0.468023
31
0.706072
12
-0.196653
22
0.401673
32
0.749842
13
-0.196653
23
0.401673
33
0.749842
0
3DFACE
8
0
10
-0.178696
20
0.410652
30
0.771166
11
-0.153104
21
0.465296
31
0.756302
12
-0.187654
22
0.406173
32
0.760494
13
-0.187654
23
0.406173
33
0.760494
0
3DFACE
8
0
10
-0.279482
20
0.360259
30
0.654892
11
-0.281270
21
0.407472
31
0.605312
12
-0.288889
22
0.355556
32
0.644444
13
-0.288889
23
0.355556
33
0.644444
0
3DFACE
8
0
10
-0.281322
20
0.453070
30
0.559733
11
-0.311092
21
0.401490
31
0.564411
12
-0.281270
22
0.407472
32
0.605312
13
-0.281270
23
0.407472
33
0.605312
0
3DFACE
8
0
10
-0.270731
20
0.546287
30
0.482099
11
-0.235030
21
0.591897
31
0.490759
12
-0.291632
22
0.570624
32
0.425286
13
-0.291632
23
0.570624
33
0.425286
0
3DFACE
8
0
10
-0.254689
20
0.455953
30
0.598843
11
-0.281322
21
0.453070
31
0.559733
12
-0.281270
22
0.407472
32
0.605312
13
-0.281270
23
0.407472
33
0.605312
0
3DFACE
8
0
10
-0.235030
20
0.591897
30
0.490759
11
-0.210172
21
0.555216
31
0.567467
12
-0.191302
22
0.617644
32
0.532129
13
-0.191302
23
0.617644
33
0.532129
0
3DFACE
8
0
10
-0.245523
20
0.428333
30
0.641545
11
-0.260790
21
0.369605
31
0.675849
12
-0.251505
22
0.374248
32
0.686359
13
-0.251505
23
0.374248
33
0.686359
0
3DFACE
8
0
10
-0.212692
20
0.452434
30
0.670224
11
-0.242261
21
0.378870
31
0.696888
12
-0.233058
22
0.383471
32
0.707438
13
-0.233058
23
0.383471
33
0.707438
0
3DFACE
8
0
10
-0.245523
20
0.428333
30
0.641545
11
-0.212692
21
0.452434
31
0.670224
12
-0.221745
22
0.491298
32
0.615337
13
-0.221745
23
0.491298
33
0.615337
0
3DFACE
8
0
10
-0.114978
20
0.734549
30
0.527591
11
-0.109647
21
0.771928
31
0.496597
12
-0.153146
22
0.735840
32
0.468122
13
-0.153146
23
0.735840
33
0.468122
0
3DFACE
8
0
10
-0.035437
20
0.824681
30
0.552431
11
0.000000
21
0.865616
31
0.561596
12
0.000000
22
0.875390
32
0.551331
13
0.000000
23
0.875390
33
0.551331
0
3DFACE
8
0
10
-0.281451
20
0.744854
30
0.264605
11
-0.317601
21
0.732700
31
0.221830
12
-0.332375
22
0.668840
32
0.263899
13
-0.332375
23
0.668840
33
0.263899
0
3DFACE
8
0
10
-0.281451
20
0.744854
30
0.264605
11
-0.283865
21
0.683214
31
0.323161
12
-0.248021
22
0.753007
32
0.307079
13
-0.248021
23
0.753007
33
0.307079
0
3DFACE
8
0
10
-0.210848
20
0.795311
30
0.320687
11
-0.176482
21
0.855370
31
0.312233
12
-0.224937
22
0.827574
32
0.267265
13
-0.224937
23
0.827574
33
0.267265
0
3DFACE
8
0
10
-0.210848
20
0.795311
30
0.320687
11
-0.224937
21
0.827574
31
0.267265
12
-0.248021
22
0.753007
32
0.307079
13
-0.248021
23
0.753007
33
0.307079
0
3DFACE
8
0
10
-0.153104
20
0.465296
30
0.756302
11
-0.143271
21
0.428364
31
0.814060
12
-0.116447
22
0.494375
32
0.787580
13
-0.116447
23
0.494375
33
0.787580
0
3DFACE
8
0
10
-0.122530
20
0.559910
30
0.704013
11
-0.098249
21
0.546929
31
0.759429
12
-0.082569
22
0.588772
32
0.738314
13
-0.082569
23
0.588772
33
0.738314
0
3DFACE
8
0
10
-0.088589
20
0.500202
30
0.830181
11
-0.117131
21
0.441435
31
0.846444
12
-0.108499
22
0.445750
32
0.857280
13
-0.108499
23
0.445750
33
0.857280
0
3DFACE
8
0
10
-0.074678
20
0.543960
30
0.803584
11
-0.046012
21
0.543457
31
0.855252
12
-0.038357
22
0.580074
32
0.824372
13
-0.038357
23
0.580074
33
0.824372
0
3DFACE
8
0
10
-0.099908
20
0.450046
30
0.868136
11
-0.088589
21
0.500202
31
0.830181
12
-0.108499
22
0.445750
32
0.857280
13
-0.108499
23
0.445750
33
0.857280
0
3DFACE
8
0
10
-0.046012
20
0.543457
30
0.855252
11
0.000000
21
0.574380
31
0.900826
12
0.000000
22
0.582849
32
0.889909
13
0.000000
23
0.582849
33
0.889909
0
3DFACE
8
0
10
-0.101281
20
1.076035
30
0.210842
11
-0.111605
21
1.027762
31
0.240801
12
-0.061930
22
1.082454
32
0.261067
13
-0.061930
23
1.082454
33
0.261067
0
3DFACE
8
0
10
0.000000
20
1.100755
30
0.330681
11
-0.044369
21
1.062635
31
0.304096
12
0.000000
22
1.090083
32
0.340496
13
0.000000
23
1.090083
33
0.340496
0
3DFACE
8
0
10
-0.061930
20
1.082454
30
0.261067
11
0.000000
21
1.143853
31
0.291623
12
-0.053542
22
1.130730
32
0.229009
13
-0.053542
23
1.130730
33
0.229009
0
3DFACE
8
0
10
-0.145919
20
1.036617
30
0.182535
11
-0.111605
21
1.027762
31
0.240801
12
-0.101281
22
1.076035
32
0.210842
13
-0.101281
23
1.076035
33
0.210842
0
3DFACE
8
0
10
-0.355882
20
0.869860
30
0.024079
11
-0.309738
21
0.872140
31
0.093853
12
-0.336537
22
0.900592
32
0.023651
13
-0.336537
23
0.900592
33
0.023651
0
3DFACE
8
0
10
-0.336537
20
0.900592
30
0.023651
11
-0.309738
21
0.872140
31
0.093853
12
-0.326926
22
0.915988
32
0.023406
13
-0.326926
23
0.915988
33
0.023406
0
3DFACE
8
0
10
-0.245585
20
0.856382
30
0.207567
11
-0.266444
21
0.807737
31
0.224315
12
-0.224937
22
0.827574
32
0.267265
13
-0.224937
23
0.827574
33
0.267265
0
3DFACE
8
0
10
-0.301112
20
0.786099
30
0.193204
11
-0.282740
21
0.847186
31
0.160197
12
-0.321896
22
0.814246
32
0.133038
13
-0.321896
23
0.814246
33
0.133038
0
3DFACE
8
0
10
-0.374729
20
0.672085
30
0.196027
11
-0.349480
21
0.709283
31
0.196832
12
-0.384570
22
0.712778
32
0.139386
13
-0.384570
23
0.712778
33
0.139386
0
3DFACE
8
0
10
-0.349480
20
0.709283
30
0.196832
11
-0.317601
21
0.732700
31
0.221830
12
-0.342164
22
0.758630
32
0.158010
13
-0.342164
23
0.758630
33
0.158010
0
3DFACE
8
0
10
-0.056533
20
0.962762
30
0.381997
11
0.000000
21
0.995868
31
0.429752
12
0.000000
22
1.006173
32
0.419753
13
0.000000
23
1.006173
33
0.419753
0
3DFACE
8
0
10
-0.176482
20
0.855370
30
0.312233
11
-0.174619
21
0.905192
31
0.265916
12
-0.224937
22
0.827574
32
0.267265
13
-0.224937
23
0.827574
33
0.267265
0
3DFACE
8
0
10
-0.301112
20
0.786099
30
0.193204
11
-0.317601
21
0.732700
31
0.221830
12
-0.281451
22
0.744854
32
0.264605
13
-0.281451
23
0.744854
33
0.264605
0
3DFACE
8
0
10
-0.345059
20
0.831865
30
0.079387
11
-0.395062
21
0.808642
31
0.024691
12
-0.365410
22
0.780295
32
0.100107
13
-0.365410
23
0.780295
33
0.100107
0
3DFACE
8
0
10
-0.045342
20
0.997845
30
0.363958
11
0.000000
21
1.016519
31
0.409775
12
0.000000
22
1.026905
32
0.399816
13
0.000000
23
1.026905
33
0.399816
0
3DFACE
8
0
10
-0.098511
20
0.918028
30
0.365201
11
-0.091843
21
0.966924
31
0.327207
12
-0.135605
22
0.912058
32
0.316820
13
-0.135605
23
0.912058
33
0.316820
0
3DFACE
8
0
10
-0.205693
20
1.117998
30
0.018365
11
-0.161888
21
1.144726
31
0.059973
12
-0.196653
22
1.133680
32
0.017835
13
-0.196653
23
1.133680
33
0.017835
0
3DFACE
8
0
10
-0.142029
20
1.079714
30
0.148288
11
-0.101281
21
1.076035
31
0.210842
12
-0.098756
22
1.111178
32
0.182387
13
-0.098756
23
1.111178
33
0.182387
0
3DFACE
8
0
10
-0.053542
20
1.130730
30
0.229009
11
-0.000000
21
1.165646
31
0.272217
12
0.000000
22
1.176604
32
0.262545
13
0.000000
23
1.176604
33
0.262545
0
3DFACE
8
0
10
-0.153146
20
0.735840
30
0.468122
11
-0.178293
21
0.756743
31
0.408654
12
-0.199305
22
0.703605
32
0.431051
13
-0.199305
23
0.703605
33
0.431051
0
3DFACE
8
0
10
-0.050531
20
0.845341
30
0.508591
11
-0.069348
21
0.792177
31
0.536096
12
-0.035437
22
0.824681
32
0.552431
13
-0.035437
23
0.824681
33
0.552431
0
3DFACE
8
0
10
-0.772003
20
0.184517
30
0.111677
11
-0.819619
21
0.132638
31
0.099600
12
-0.781362
22
0.147763
32
0.135422
13
-0.781362
23
0.147763
33
0.135422
0
3DFACE
8
0
10
-0.732476
20
0.184519
30
0.165117
11
-0.781362
21
0.147763
31
0.135422
12
-0.754339
22
0.150022
32
0.169283
13
-0.754339
23
0.150022
33
0.169283
0
3DFACE
8
0
10
-0.754339
20
0.150022
30
0.169283
11
-0.765738
21
0.117131
31
0.185899
12
-0.754454
22
0.122773
32
0.195409
13
-0.754454
23
0.122773
33
0.195409
0
3DFACE
8
0
10
-0.824758
20
0.161521
30
0.063983
11
-0.772003
21
0.184517
31
0.111677
12
-0.793010
22
0.204169
32
0.063632
13
-0.793010
23
0.204169
33
0.063632
0
3DFACE
8
0
10
-0.819619
20
0.132638
30
0.099600
11
-0.824758
21
0.161521
31
0.063983
12
-0.865448
22
0.111514
32
0.060394
13
-0.865448
23
0.111514
33
0.060394
0
3DFACE
8
0
10
-0.793010
20
0.204169
30
0.063632
11
-0.709723
21
0.359912
31
0.018876
12
-0.824758
22
0.161521
32
0.063983
13
-0.824758
23
0.161521
33
0.063983
0
3DFACE
8
0
10
-0.487602
20
0.537262
30
0.162255
11
-0.493530
21
0.493106
31
0.198394
12
-0.442061
22
0.531811
32
0.236363
13
-0.442061
23
0.531811
33
0.236363
0
3DFACE
8
0
10
-0.534329
20
0.488367
30
0.142343
11
-0.487602
21
0.537262
31
0.162255
12
-0.535090
22
0.532175
32
0.095883
13
-0.535090
23
0.532175
33
0.095883
0
3DFACE
8
0
10
-0.410537
20
0.458361
30
0.357119
11
-0.364812
21
0.486994
31
0.397623
12
-0.386462
22
0.510070
32
0.341889
13
-0.386462
23
0.510070
33
0.341889
0
3DFACE
8
0
10
-0.473139
20
0.375531
30
0.345430
11
-0.433020
21
0.390703
31
0.389940
12
-0.443840
22
0.428026
32
0.337346
13
-0.443840
23
0.428026
33
0.337346
0
3DFACE
8
0
10
-0.398066
20
0.747494
30
0.082888
11
-0.404959
21
0.793388
31
0.024793
12
-0.414896
22
0.778155
32
0.024875
13
-0.414896
23
0.778155
33
0.024875
0
3DFACE
8
0
10
-0.384570
20
0.712778
30
0.139386
11
-0.365410
21
0.780295
31
0.100107
12
-0.398066
22
0.747494
32
0.082888
13
-0.398066
23
0.747494
33
0.082888
0
3DFACE
8
0
10
-0.390062
20
0.628836
30
0.216625
11
-0.389059
21
0.593563
31
0.253945
12
-0.332375
22
0.668840
32
0.263899
13
-0.332375
23
0.668840
33
0.263899
0
3DFACE
8
0
10
-0.337109
20
0.614543
30
0.311624
11
-0.332375
21
0.668840
31
0.263899
12
-0.389059
22
0.593563
32
0.253945
13
-0.389059
23
0.593563
33
0.253945
0
3DFACE
8
0
10
-0.397790
20
0.345624
30
0.485830
11
-0.404959
21
0.297521
31
0.520661
12
-0.395062
22
0.302469
32
0.530864
13
-0.395062
23
0.302469
33
0.530864
0
3DFACE
8
0
10
-0.430110
20
0.338880
30
0.444129
11
-0.397790
21
0.345624
31
0.485830
12
-0.401160
22
0.385019
32
0.442931
13
-0.401160
23
0.385019
33
0.442931
0
3DFACE
8
0
10
-0.339683
20
0.559272
30
0.363438
11
-0.337109
21
0.614543
31
0.311624
12
-0.387959
22
0.551152
32
0.298428
13
-0.387959
23
0.551152
33
0.298428
0
3DFACE
8
0
10
-0.387959
20
0.551152
30
0.298428
11
-0.337109
21
0.614543
31
0.311624
12
-0.389059
22
0.593563
32
0.253945
13
-0.389059
23
0.593563
33
0.253945
0
3DFACE
8
0
10
-0.535090
20
0.532175
30
0.095883
11
-0.575131
21
0.483031
31
0.086990
12
-0.534329
22
0.488367
32
0.142343
13
-0.534329
23
0.488367
33
0.142343
0
3DFACE
8
0
10
-0.533182
20
0.444944
30
0.188316
11
-0.576099
21
0.437343
31
0.132792
12
-0.572844
22
0.395145
32
0.180449
13
-0.572844
23
0.395145
33
0.180449
0
3DFACE
8
0
10
-0.732476
20
0.184519
30
0.165117
11
-0.720845
21
0.139578
31
0.224059
12
-0.692413
22
0.204762
32
0.199867
13
-0.692413
23
0.204762
33
0.199867
0
3DFACE
8
0
10
-0.720845
20
0.139578
30
0.224059
11
-0.732476
21
0.184519
31
0.165117
12
-0.732007
22
0.133997
32
0.214488
13
-0.732007
23
0.133997
33
0.214488
0
3DFACE
8
0
10
-0.507805
20
0.290606
30
0.376468
11
-0.495868
21
0.252066
31
0.429752
12
-0.483714
22
0.317884
32
0.385476
13
-0.483714
23
0.317884
33
0.385476
0
3DFACE
8
0
10
-0.526905
20
0.236547
30
0.399816
11
-0.531621
21
0.280452
31
0.351935
12
-0.537333
22
0.231334
32
0.389879
13
-0.537333
23
0.231334
33
0.389879
0
3DFACE
8
0
10
-0.709723
20
0.359912
30
0.018876
11
-0.764974
21
0.246827
31
0.058522
12
-0.727202
22
0.274941
32
0.082198
13
-0.727202
23
0.274941
33
0.082198
0
3DFACE
8
0
10
-0.690292
20
0.284892
30
0.123632
11
-0.727202
21
0.274941
31
0.082198
12
-0.717358
22
0.231114
32
0.139830
13
-0.717358
23
0.231114
33
0.139830
0
3DFACE
8
0
10
-0.136703
20
0.510217
30
0.735100
11
-0.098249
21
0.546929
31
0.759429
12
-0.122530
22
0.559910
32
0.704013
13
-0.122530
23
0.559910
33
0.704013
0
3DFACE
8
0
10
-0.160902
20
0.419549
30
0.792572
11
-0.153104
21
0.465296
31
0.756302
12
-0.169779
22
0.415111
32
0.781859
13
-0.169779
23
0.415111
33
0.781859
0
3DFACE
8
0
10
-0.175675
20
0.574178
30
0.602340
11
-0.154209
21
0.613599
31
0.594635
12
-0.191302
22
0.617644
32
0.532129
13
-0.191302
23
0.617644
33
0.532129
0
3DFACE
8
0
10
-0.128501
20
0.600201
30
0.650121
11
-0.175675
21
0.574178
31
0.602340
12
-0.155049
22
0.555926
32
0.654965
13
-0.155049
23
0.555926
33
0.654965
0
3DFACE
8
0
10
-0.212692
20
0.452434
30
0.670224
11
-0.223896
21
0.388052
31
0.718008
12
-0.214774
22
0.392613
32
0.728599
13
-0.214774
23
0.392613
33
0.728599
0
3DFACE
8
0
10
-0.214774
20
0.392613
30
0.728599
11
-0.181109
21
0.468023
31
0.706072
12
-0.212692
22
0.452434
32
0.670224
13
-0.212692
23
0.452434
33
0.670224
0
3DFACE
8
0
10
-0.158998
20
0.518041
30
0.689299
11
-0.122530
21
0.559910
31
0.704013
12
-0.155049
22
0.555926
32
0.654965
13
-0.155049
23
0.555926
33
0.654965
0
3DFACE
8
0
10
-0.155049
20
0.555926
30
0.654965
11
-0.190295
21
0.515790
31
0.640440
12
-0.158998
22
0.518041
32
0.689299
13
-0.158998
23
0.518041
33
0.689299
0
3DFACE
8
0
10
-0.221745
20
0.491298
30
0.615337
11
-0.245063
21
0.502191
31
0.567042
12
-0.254689
22
0.455953
32
0.598843
13
-0.254689
23
0.455953
33
0.598843
0
3DFACE
8
0
10
-0.210172
20
0.555216
30
0.567467
11
-0.244163
21
0.542010
31
0.527749
12
-0.245063
22
0.502191
32
0.567042
13
-0.245063
23
0.502191
33
0.567042
0
3DFACE
8
0
10
0.000000
20
0.723896
30
0.718008
11
-0.033549
21
0.716973
31
0.672630
12
-0.041952
22
0.674389
32
0.707487
13
-0.041952
23
0.674389
33
0.707487
0
3DFACE
8
0
10
-0.085659
20
0.642058
30
0.673242
11
-0.090908
21
0.680733
31
0.622343
12
-0.117094
22
0.647234
32
0.617346
13
-0.117094
23
0.647234
33
0.617346
0
3DFACE
8
0
10
-0.117094
20
0.647234
30
0.617346
11
-0.111920
21
0.700773
31
0.568027
12
-0.144262
22
0.649194
32
0.572523
13
-0.144262
23
0.649194
33
0.572523
0
3DFACE
8
0
10
0.000000
20
0.760790
30
0.675849
11
-0.033549
21
0.716973
31
0.672630
12
0.000000
22
0.751505
32
0.686359
13
0.000000
23
0.751505
33
0.686359
0
3DFACE
8
0
10
-0.152066
20
0.423967
30
0.803306
11
-0.153104
21
0.465296
31
0.756302
12
-0.160902
22
0.419549
32
0.792572
13
-0.160902
23
0.419549
33
0.792572
0
3DFACE
8
0
10
-0.134517
20
0.432742
30
0.824834
11
-0.116447
21
0.494375
31
0.787580
12
-0.143271
22
0.428364
32
0.814060
13
-0.143271
23
0.428364
33
0.814060
0
3DFACE
8
0
10
0.000000
20
0.652066
30
0.803306
11
-0.050858
21
0.599237
31
0.779937
12
0.000000
22
0.643271
32
0.814060
13
0.000000
23
0.643271
33
0.814060
0
3DFACE
8
0
10
-0.050858
20
0.599237
30
0.779937
11
-0.082569
21
0.588772
31
0.738314
12
-0.098249
22
0.546929
32
0.759429
13
-0.098249
23
0.546929
33
0.759429
0
3DFACE
8
0
10
-0.190295
20
0.515790
30
0.640440
11
-0.221745
21
0.491298
31
0.615337
12
-0.212692
22
0.452434
32
0.670224
13
-0.212692
23
0.452434
33
0.670224
0
3DFACE
8
0
10
-0.158998
20
0.518041
30
0.689299
11
-0.190295
21
0.515790
31
0.640440
12
-0.181109
22
0.468023
32
0.706072
13
-0.181109
23
0.468023
33
0.706072
0
3DFACE
8
0
10
-0.291632
20
0.570624
30
0.425286
11
-0.235030
21
0.591897
31
0.490759
12
-0.255876
22
0.620364
32
0.429607
13
-0.255876
23
0.620364
33
0.429607
0
3DFACE
8
0
10
-0.317355
20
0.341322
30
0.613223
11
-0.311092
21
0.401490
31
0.564411
12
-0.326926
22
0.336537
32
0.602857
13
-0.326926
23
0.336537
33
0.602857
0
3DFACE
8
0
10
-0.458709
20
0.662770
30
0.076425
11
-0.506173
21
0.641975
31
0.024691
12
-0.465596
22
0.618858
32
0.111554
13
-0.465596
23
0.618858
33
0.111554
0
3DFACE
8
0
10
-0.465596
20
0.618858
30
0.111554
11
-0.496843
21
0.577237
31
0.107008
12
-0.442697
22
0.583656
32
0.182687
13
-0.442697
23
0.583656
33
0.182687
0
3DFACE
8
0
10
-0.045342
20
0.997845
30
0.363958
11
0.000000
21
1.037333
31
0.389879
12
0.000000
22
1.047801
32
0.379961
13
0.000000
23
1.047801
33
0.379961
0
3DFACE
8
0
10
-0.056533
20
0.962762
30
0.381997
11
-0.045342
21
0.997845
31
0.363958
12
-0.091843
22
0.966924
32
0.327207
13
-0.091843
23
0.966924
33
0.327207
0
3DFACE
8
0
10
-0.226522
20
1.017174
30
0.080395
11
-0.214774
21
1.102336
31
0.018876
12
-0.251505
22
1.039894
32
0.020712
13
-0.251505
23
1.039894
33
0.020712
0
3DFACE
8
0
10
-0.212258
20
0.947007
30
0.169153
11
-0.178261
21
0.999878
31
0.169333
12
-0.208497
22
0.995671
32
0.128147
13
-0.208497
23
0.995671
33
0.128147
0
3DFACE
8
0
10
-0.243618
20
0.901574
30
0.166034
11
-0.282740
21
0.847186
31
0.160197
12
-0.245585
22
0.856382
32
0.207567
13
-0.245585
23
0.856382
33
0.207567
0
3DFACE
8
0
10
-0.282740
20
0.847186
30
0.160197
11
-0.243618
21
0.901574
31
0.166034
12
-0.272708
22
0.899661
32
0.123589
13
-0.272708
23
0.899661
33
0.123589
0
3DFACE
8
0
10
-0.385206
20
0.823916
30
0.024569
11
-0.345059
21
0.831865
31
0.079387
12
-0.355882
22
0.869860
32
0.024079
13
-0.355882
23
0.869860
33
0.024079
0
3DFACE
8
0
10
-0.345059
20
0.831865
30
0.079387
11
-0.365410
21
0.780295
31
0.100107
12
-0.321896
22
0.814246
32
0.133038
13
-0.321896
23
0.814246
33
0.133038
0
3DFACE
8
0
10
-0.127391
20
0.964798
30
0.277677
11
-0.135605
21
0.912058
31
0.316820
12
-0.091843
22
0.966924
32
0.327207
13
-0.091843
23
0.966924
33
0.327207
0
3DFACE
8
0
10
-0.135605
20
0.912058
30
0.316820
11
-0.136393
21
0.862940
31
0.364198
12
-0.098511
22
0.918028
32
0.365201
13
-0.098511
23
0.918028
33
0.365201
0
3DFACE
8
0
10
-0.135716
20
1.190107
30
0.058398
11
-0.161888
21
1.144726
31
0.059973
12
-0.134143
22
1.150545
32
0.095672
13
-0.134143
23
1.150545
33
0.095672
0
3DFACE
8
0
10
-0.070592
20
1.189223
30
0.153123
11
-0.053445
21
1.215154
31
0.154838
12
-0.074380
22
1.232261
32
0.110510
13
-0.074380
23
1.232261
33
0.110510
0
3DFACE
8
0
10
-0.050531
20
0.845341
30
0.508591
11
0.000000
21
0.875390
31
0.551331
12
0.000000
22
0.885206
32
0.541088
13
0.000000
23
0.885206
33
0.541088
0
3DFACE
8
0
10
-0.069348
20
0.792177
30
0.536096
11
-0.050531
21
0.845341
31
0.508591
12
-0.090711
22
0.812952
32
0.482504
13
-0.090711
23
0.812952
33
0.482504
0
3DFACE
8
0
10
-0.148713
20
0.810208
30
0.398807
11
-0.133620
21
0.785668
31
0.446378
12
-0.113706
22
0.836844
32
0.423920
13
-0.113706
23
0.836844
33
0.423920
0
3DFACE
8
0
10
-0.133620
20
0.785668
30
0.446378
11
-0.148713
21
0.810208
31
0.398807
12
-0.178293
22
0.756743
32
0.408654
13
-0.178293
23
0.756743
33
0.408654
0
3DFACE
8
0
10
-0.088689
20
0.885157
30
0.412146
11
-0.078779
21
0.853195
31
0.458913
12
-0.047068
22
0.882960
32
0.475029
13
-0.047068
23
0.882960
33
0.475029
0
3DFACE
8
0
10
0.000000
20
0.944955
30
0.480053
11
-0.043623
21
0.914467
31
0.448200
12
0.000000
22
0.934894
32
0.490174
13
0.000000
23
0.934894
33
0.490174
0
3DFACE
8
0
10
-0.133620
20
0.785668
30
0.446378
11
-0.109647
21
0.771928
31
0.496597
12
-0.090711
22
0.812952
32
0.482504
13
-0.090711
23
0.812952
33
0.482504
0
3DFACE
8
0
10
-0.109647
20
0.771928
30
0.496597
11
-0.114978
21
0.734549
31
0.527591
12
-0.069348
22
0.792177
32
0.536096
13
-0.069348
23
0.792177
33
0.536096
0
3DFACE
8
0
10
-0.135605
20
0.912058
30
0.316820
11
-0.127391
21
0.964798
31
0.277677
12
-0.174619
22
0.905192
32
0.265916
13
-0.174619
23
0.905192
33
0.265916
0
3DFACE
8
0
10
-0.091843
20
0.966924
30
0.327207
11
-0.098511
21
0.918028
31
0.365201
12
-0.056533
22
0.962762
32
0.381997
13
-0.056533
23
0.962762
33
0.381997
0
3DFACE
8
0
10
-0.214774
20
1.102336
30
0.018876
11
-0.170369
21
1.100110
31
0.087796
12
-0.205693
22
1.117998
32
0.018365
13
-0.205693
23
1.117998
33
0.018365
0
3DFACE
8
0
10
-0.142029
20
1.079714
30
0.148288
11
-0.145919
21
1.036617
31
0.182535
12
-0.101281
22
1.076035
32
0.210842
13
-0.101281
23
1.076035
33
0.210842
0
3DFACE
8
0
10
-0.547801
20
0.226099
30
0.379961
11
-0.561930
21
0.255242
31
0.332704
12
-0.558310
22
0.220845
32
0.370064
13
-0.558310
23
0.220845
33
0.370064
0
3DFACE
8
0
10
-0.546401
20
0.297684
30
0.314358
11
-0.507253
21
0.337333
31
0.332630
12
-0.533279
22
0.340342
32
0.292024
13
-0.533279
23
0.340342
33
0.292024
0
3DFACE
8
0
10
-0.575131
20
0.483031
30
0.086990
11
-0.611468
21
0.492603
31
0.022549
12
-0.622222
22
0.477778
32
0.022222
13
-0.622222
23
0.477778
33
0.022222
0
3DFACE
8
0
10
-0.575131
20
0.483031
30
0.086990
11
-0.600755
21
0.507448
31
0.022855
12
-0.611468
22
0.492603
32
0.022549
13
-0.611468
23
0.492603
33
0.022549
0
3DFACE
8
0
10
-0.304379
20
0.506647
30
0.470230
11
-0.270731
21
0.546287
31
0.482099
12
-0.291632
22
0.570624
32
0.425286
13
-0.291632
23
0.570624
33
0.425286
0
3DFACE
8
0
10
-0.310856
20
0.452035
30
0.514806
11
-0.277083
21
0.498170
31
0.520965
12
-0.304379
22
0.506647
32
0.470230
13
-0.304379
23
0.506647
33
0.470230
0
3DFACE
8
0
10
-0.401160
20
0.385019
30
0.442931
11
-0.433020
21
0.390703
31
0.389940
12
-0.430110
22
0.338880
32
0.444129
13
-0.430110
23
0.338880
33
0.444129
0
3DFACE
8
0
10
-0.424875
20
0.287562
30
0.500316
11
-0.397790
21
0.345624
31
0.485830
12
-0.430110
22
0.338880
32
0.444129
13
-0.430110
23
0.338880
33
0.444129
0
3DFACE
8
0
10
-0.364812
20
0.486994
30
0.397623
11
-0.340258
21
0.454947
31
0.466760
12
-0.328729
22
0.517658
32
0.421891
13
-0.328729
23
0.517658
33
0.421891
0
3DFACE
8
0
10
-0.397790
20
0.345624
30
0.485830
11
-0.414896
21
0.292552
31
0.510479
12
-0.404959
22
0.297521
32
0.520661
13
-0.404959
23
0.297521
33
0.520661
0
3DFACE
8
0
10
-0.533182
20
0.444944
30
0.188316
11
-0.534513
21
0.402326
31
0.229145
12
-0.485227
22
0.458115
32
0.246026
13
-0.485227
23
0.458115
33
0.246026
0
3DFACE
8
0
10
-0.576099
20
0.437343
30
0.132792
11
-0.534329
21
0.488367
31
0.142343
12
-0.575131
22
0.483031
32
0.086990
13
-0.575131
23
0.483031
33
0.086990
0
3DFACE
8
0
10
-0.424733
20
0.706909
30
0.083302
11
-0.458709
21
0.662770
31
0.076425
12
-0.427194
22
0.668900
32
0.118772
13
-0.427194
23
0.668900
33
0.118772
0
3DFACE
8
0
10
-0.475380
20
0.687185
30
0.024936
11
-0.458709
21
0.662770
31
0.076425
12
-0.465197
22
0.702296
32
0.024977
13
-0.465197
23
0.702296
33
0.024977
0
3DFACE
8
0
10
-0.506583
20
0.390268
30
0.281983
11
-0.470548
21
0.428697
31
0.297080
12
-0.485227
22
0.458115
32
0.246026
13
-0.485227
23
0.458115
33
0.246026
0
3DFACE
8
0
10
-0.483714
20
0.317884
30
0.385476
11
-0.507253
21
0.337333
31
0.332630
12
-0.507805
22
0.290606
32
0.376468
13
-0.507805
23
0.290606
33
0.376468
0
3DFACE
8
0
10
-0.616292
20
0.434745
30
0.076289
11
-0.622222
21
0.477778
31
0.022222
12
-0.633017
22
0.462973
32
0.021875
13
-0.633017
23
0.462973
33
0.021875
0
3DFACE
8
0
10
-0.576099
20
0.437343
30
0.132792
11
-0.533182
21
0.444944
31
0.188316
12
-0.534329
22
0.488367
32
0.142343
13
-0.534329
23
0.488367
33
0.142343
0
3DFACE
8
0
10
-0.506583
20
0.390268
30
0.281983
11
-0.555088
21
0.349625
31
0.251443
12
-0.533279
22
0.340342
32
0.292024
13
-0.533279
23
0.340342
33
0.292024
0
3DFACE
8
0
10
-0.586611
20
0.258343
30
0.294999
11
-0.561930
21
0.255242
31
0.332704
12
-0.546401
22
0.297684
32
0.314358
13
-0.546401
23
0.297684
33
0.314358
0
3DFACE
8
0
10
-0.533279
20
0.340342
30
0.292024
11
-0.568101
21
0.304807
31
0.276549
12
-0.546401
22
0.297684
32
0.314358
13
-0.546401
23
0.297684
33
0.314358
0
3DFACE
8
0
10
-0.561930
20
0.255242
30
0.332704
11
-0.579451
21
0.210274
31
0.350332
12
-0.568860
22
0.215570
32
0.360188
13
-0.568860
23
0.215570
33
0.360188
0
3DFACE
8
0
10
-0.038357
20
0.580074
30
0.824372
11
0.000000
21
0.608499
31
0.857280
12
0.000000
22
0.617131
32
0.846444
13
0.000000
23
0.617131
33
0.846444
0
3DFACE
8
0
10
-0.064985
20
0.502087
30
0.870808
11
-0.046012
21
0.543457
31
0.855252
12
-0.088589
22
0.500202
32
0.830181
13
-0.088589
23
0.500202
33
0.830181
0
3DFACE
8
0
10
-0.038357
20
0.580074
30
0.824372
11
0.000000
21
0.599908
31
0.868136
12
0.000000
22
0.608499
32
0.857280
13
0.000000
23
0.608499
33
0.857280
0
3DFACE
8
0
10
-0.046012
20
0.543457
30
0.855252
11
-0.074678
21
0.543960
31
0.803584
12
-0.088589
22
0.500202
32
0.830181
13
-0.088589
23
0.500202
33
0.830181
0
3DFACE
8
0
10
-0.175675
20
0.574178
30
0.602340
11
-0.210172
21
0.555216
31
0.567467
12
-0.190295
22
0.515790
32
0.640440
13
-0.190295
23
0.515790
33
0.640440
0
3DFACE
8
0
10
-0.190295
20
0.515790
30
0.640440
11
-0.155049
21
0.555926
31
0.654965
12
-0.175675
22
0.574178
32
0.602340
13
-0.175675
23
0.574178
33
0.602340
0
3DFACE
8
0
10
-0.199305
20
0.703605
30
0.431051
11
-0.178293
21
0.756743
31
0.408654
12
-0.225110
22
0.731254
32
0.363739
13
-0.225110
23
0.731254
33
0.363739
0
3DFACE
8
0
10
-0.113706
20
0.836844
30
0.423920
11
-0.090711
21
0.812952
31
0.482504
12
-0.078779
22
0.853195
32
0.458913
13
-0.078779
23
0.853195
33
0.458913
0
3DFACE
8
0
10
-0.047068
20
0.882960
30
0.475029
11
-0.000000
21
0.924875
31
0.500316
12
-0.043623
22
0.914467
32
0.448200
13
-0.043623
23
0.914467
33
0.448200
0
3DFACE
8
0
10
0.000000
20
0.914896
30
0.510479
11
-0.047068
21
0.882960
31
0.475029
12
0.000000
22
0.904959
32
0.520661
13
0.000000
23
0.904959
33
0.520661
0
3DFACE
8
0
10
-0.111920
20
0.700773
30
0.568027
11
-0.090908
21
0.680733
31
0.622343
12
-0.076417
22
0.722305
32
0.599847
13
-0.076417
23
0.722305
33
0.599847
0
3DFACE
8
0
10
-0.061526
20
0.765349
30
0.576465
11
-0.076417
21
0.722305
31
0.599847
12
-0.038753
22
0.751927
32
0.625726
13
-0.038753
23
0.751927
33
0.625726
0
3DFACE
8
0
10
-0.154209
20
0.613599
30
0.594635
11
-0.175675
21
0.574178
31
0.602340
12
-0.128501
22
0.600201
32
0.650121
13
-0.128501
23
0.600201
33
0.650121
0
3DFACE
8
0
10
-0.041952
20
0.674389
30
0.707487
11
0.000000
21
0.687654
31
0.760494
12
0.000000
22
0.696653
32
0.749842
13
0.000000
23
0.696653
33
0.749842
0
3DFACE
8
0
10
-0.281270
20
0.407472
30
0.605312
11
-0.245523
21
0.428333
31
0.641545
12
-0.254689
22
0.455953
32
0.598843
13
-0.254689
23
0.455953
33
0.598843
0
3DFACE
8
0
10
-0.244163
20
0.542010
30
0.527749
11
-0.210172
21
0.555216
31
0.567467
12
-0.235030
22
0.591897
32
0.490759
13
-0.235030
23
0.591897
33
0.490759
0
3DFACE
8
0
10
-0.136393
20
0.862940
30
0.364198
11
-0.113706
21
0.836844
31
0.423920
12
-0.088689
22
0.885157
32
0.412146
13
-0.088689
23
0.885157
33
0.412146
0
3DFACE
8
0
10
-0.088689
20
0.885157
30
0.412146
11
-0.098511
21
0.918028
31
0.365201
12
-0.136393
22
0.862940
32
0.364198
13
-0.136393
23
0.862940
33
0.364198
0
3DFACE
8
0
10
-0.259299
20
0.976212
30
0.069509
11
-0.251505
21
1.039894
31
0.020712
12
-0.285025
22
0.926787
32
0.077993
13
-0.285025
23
0.926787
33
0.077993
0
3DFACE
8
0
10
-0.272708
20
0.899661
30
0.123589
11
-0.242738
21
0.953008
31
0.117251
12
-0.285025
22
0.926787
32
0.077993
13
-0.285025
23
0.926787
33
0.077993
0
3DFACE
8
0
10
-0.266444
20
0.807737
30
0.224315
11
-0.281451
21
0.744854
31
0.264605
12
-0.224937
22
0.827574
32
0.267265
13
-0.224937
23
0.827574
33
0.267265
0
3DFACE
8
0
10
-0.281451
20
0.744854
30
0.264605
11
-0.266444
21
0.807737
31
0.224315
12
-0.301112
22
0.786099
32
0.193204
13
-0.301112
23
0.786099
33
0.193204
0
3DFACE
8
0
10
-0.309738
20
0.872140
30
0.093853
11
-0.321896
21
0.814246
31
0.133038
12
-0.282740
22
0.847186
32
0.160197
13
-0.282740
23
0.847186
33
0.160197
0
3DFACE
8
0
10
-0.266444
20
0.807737
30
0.224315
11
-0.245585
21
0.856382
31
0.207567
12
-0.282740
22
0.847186
32
0.160197
13
-0.282740
23
0.847186
33
0.160197
0
3DFACE
8
0
10
-0.321896
20
0.814246
30
0.133038
11
-0.309738
21
0.872140
31
0.093853
12
-0.345059
22
0.831865
32
0.079387
13
-0.345059
23
0.831865
33
0.079387
0
3DFACE
8
0
10
-0.282740
20
0.847186
30
0.160197
11
-0.272708
21
0.899661
31
0.123589
12
-0.309738
22
0.872140
32
0.093853
13
-0.309738
23
0.872140
33
0.093853
0
3DFACE
8
0
10
-0.317355
20
0.931405
30
0.023140
11
-0.285025
21
0.926787
31
0.077993
12
-0.251505
22
1.039894
32
0.020712
13
-0.251505
23
1.039894
33
0.020712
0
3DFACE
8
0
10
-0.242738
20
0.953008
30
0.117251
11
-0.272708
21
0.899661
31
0.123589
12
-0.243618
22
0.901574
32
0.166034
13
-0.243618
23
0.901574
33
0.166034
0
3DFACE
8
0
10
-0.107499
20
1.233981
30
0.061532
11
-0.108070
21
1.197465
31
0.092259
12
-0.074380
22
1.232261
32
0.110510
13
-0.074380
23
1.232261
33
0.110510
0
3DFACE
8
0
10
-0.053445
20
1.215154
30
0.154838
11
-0.070592
21
1.189223
31
0.153123
12
-0.039847
22
1.185942
32
0.199189
13
-0.039847
23
1.185942
33
0.199189
0
3DFACE
8
0
10
-0.078663
20
1.150344
30
0.175958
11
-0.039847
21
1.185942
31
0.199189
12
-0.070592
22
1.189223
32
0.153123
13
-0.070592
23
1.189223
33
0.153123
0
3DFACE
8
0
10
-0.074380
20
1.232261
30
0.110510
11
-0.098392
21
1.172660
31
0.127927
12
-0.070592
22
1.189223
32
0.153123
13
-0.070592
23
1.189223
33
0.153123
0
3DFACE
8
0
10
-0.000000
20
1.288430
30
0.166942
11
-0.034819
21
1.244769
31
0.155489
12
0.000000
22
1.277064
32
0.176411
13
0.000000
23
1.277064
33
0.176411
0
3DFACE
8
0
10
-0.074380
20
1.232261
30
0.110510
11
-0.044881
21
1.280130
31
0.111678
12
-0.081269
22
1.270183
32
0.068536
13
-0.081269
23
1.270183
33
0.068536
0
3DFACE
8
0
10
0.000000
20
1.311285
30
0.148067
11
-0.044881
21
1.280130
31
0.111678
12
0.000000
22
1.299837
32
0.157494
13
0.000000
23
1.299837
33
0.157494
0
3DFACE
8
0
10
-0.043623
20
0.914467
30
0.448200
11
-0.054909
21
0.934222
31
0.412328
12
-0.088689
22
0.885157
32
0.412146
13
-0.088689
23
0.885157
33
0.412146
0
3DFACE
8
0
10
0.000000
20
0.934894
30
0.490174
11
-0.043623
21
0.914467
31
0.448200
12
-0.000000
22
0.924875
32
0.500316
13
-0.000000
23
0.924875
33
0.500316
0
3DFACE
8
0
10
-0.180690
20
0.801305
30
0.359957
11
-0.148713
21
0.810208
31
0.398807
12
-0.136393
22
0.862940
32
0.364198
13
-0.136393
23
0.862940
33
0.364198
0
3DFACE
8
0
10
-0.225110
20
0.731254
30
0.363739
11
-0.180690
21
0.801305
31
0.359957
12
-0.210848
22
0.795311
32
0.320687
13
-0.210848
23
0.795311
33
0.320687
0
3DFACE
8
0
10
-0.109647
20
0.771928
30
0.496597
11
-0.133620
21
0.785668
31
0.446378
12
-0.153146
22
0.735840
32
0.468122
13
-0.153146
23
0.735840
33
0.468122
0
3DFACE
8
0
10
-0.078779
20
0.853195
30
0.458913
11
-0.090711
21
0.812952
31
0.482504
12
-0.050531
22
0.845341
32
0.508591
13
-0.050531
23
0.845341
33
0.508591
0
3DFACE
8
0
10
-0.375390
20
0.312305
30
0.551331
11
-0.397790
21
0.345624
31
0.485830
12
-0.385206
22
0.307397
32
0.541088
13
-0.385206
23
0.307397
33
0.541088
0
3DFACE
8
0
10
-0.401160
20
0.385019
30
0.442931
11
-0.367346
21
0.384100
31
0.494890
12
-0.371431
22
0.429769
32
0.444146
13
-0.371431
23
0.429769
33
0.444146
0
3DFACE
8
0
10
-0.367346
20
0.384100
30
0.494890
11
-0.365616
21
0.317192
31
0.561596
12
-0.339009
22
0.396344
32
0.526279
13
-0.339009
23
0.396344
33
0.526279
0
3DFACE
8
0
10
-0.367346
20
0.384100
30
0.494890
11
-0.339009
21
0.396344
31
0.526279
12
-0.340258
22
0.454947
32
0.466760
13
-0.340258
23
0.454947
33
0.466760
0
3DFACE
8
0
10
-0.430110
20
0.338880
30
0.444129
11
-0.465197
21
0.267401
31
0.459871
12
-0.455056
22
0.272472
32
0.469952
13
-0.455056
23
0.272472
33
0.469952
0
3DFACE
8
0
10
-0.457296
20
0.335884
30
0.406924
11
-0.475380
21
0.262310
31
0.449811
12
-0.465197
22
0.267401
32
0.459871
13
-0.465197
23
0.267401
33
0.459871
0
3DFACE
8
0
10
-0.371431
20
0.429769
30
0.444146
11
-0.397183
21
0.431469
31
0.403636
12
-0.401160
22
0.385019
32
0.442931
13
-0.401160
23
0.385019
33
0.442931
0
3DFACE
8
0
10
-0.386462
20
0.510070
30
0.341889
11
-0.364812
21
0.486994
31
0.397623
12
-0.339683
22
0.559272
32
0.363438
13
-0.339683
23
0.559272
33
0.363438
0
3DFACE
8
0
10
-0.410537
20
0.458361
30
0.357119
11
-0.433752
21
0.488415
31
0.292464
12
-0.443840
22
0.428026
32
0.337346
13
-0.443840
23
0.428026
33
0.337346
0
3DFACE
8
0
10
-0.442061
20
0.531811
30
0.236363
11
-0.433752
21
0.488415
31
0.292464
12
-0.387959
22
0.551152
32
0.298428
13
-0.387959
23
0.551152
33
0.298428
0
3DFACE
8
0
10
-0.457296
20
0.335884
30
0.406924
11
-0.430110
21
0.338880
31
0.444129
12
-0.433020
22
0.390703
32
0.389940
13
-0.433020
23
0.390703
33
0.389940
0
3DFACE
8
0
10
-0.430110
20
0.338880
30
0.444129
11
-0.455056
21
0.272472
31
0.469952
12
-0.444955
22
0.277523
32
0.480053
13
-0.444955
23
0.277523
33
0.480053
0
3DFACE
8
0
10
-0.465596
20
0.618858
30
0.111554
11
-0.516519
21
0.626946
31
0.024569
12
-0.496843
22
0.577237
32
0.107008
13
-0.496843
23
0.577237
33
0.107008
0
3DFACE
8
0
10
-0.410537
20
0.458361
30
0.357119
11
-0.397183
21
0.431469
31
0.403636
12
-0.364812
22
0.486994
32
0.397623
13
-0.364812
23
0.486994
33
0.397623
0
3DFACE
8
0
10
-0.397183
20
0.431469
30
0.403636
11
-0.410537
21
0.458361
31
0.357119
12
-0.433020
22
0.390703
32
0.389940
13
-0.433020
23
0.390703
33
0.389940
0
3DFACE
8
0
10
-0.485604
20
0.672095
30
0.024875
11
-0.458709
21
0.662770
31
0.076425
12
-0.475380
22
0.687185
32
0.024936
13
-0.475380
23
0.687185
33
0.024936
0
3DFACE
8
0
10
-0.417317
20
0.642339
30
0.161244
11
-0.390062
21
0.628836
31
0.216625
12
-0.374729
22
0.672085
32
0.196027
13
-0.374729
23
0.672085
33
0.196027
0
3DFACE
8
0
10
-0.349480
20
0.709283
30
0.196832
11
-0.374729
21
0.672085
31
0.196027
12
-0.332375
22
0.668840
32
0.263899
13
-0.332375
23
0.668840
33
0.263899
0
3DFACE
8
0
10
-0.427194
20
0.668900
30
0.118772
11
-0.465596
21
0.618858
31
0.111554
12
-0.417317
22
0.642339
32
0.161244
13
-0.417317
23
0.642339
33
0.161244
0
3DFACE
8
0
10
-0.389059
20
0.593563
30
0.253945
11
-0.390062
21
0.628836
31
0.216625
12
-0.442697
22
0.583656
32
0.182687
13
-0.442697
23
0.583656
33
0.182687
0
3DFACE
8
0
10
-0.390062
20
0.628836
30
0.216625
11
-0.332375
21
0.668840
31
0.263899
12
-0.374729
22
0.672085
32
0.196027
13
-0.374729
23
0.672085
33
0.196027
0
3DFACE
8
0
10
-0.534513
20
0.402326
30
0.229145
11
-0.506583
21
0.390268
31
0.281983
12
-0.485227
22
0.458115
32
0.246026
13
-0.485227
23
0.458115
33
0.246026
0
3DFACE
8
0
10
-0.568101
20
0.304807
30
0.276549
11
-0.533279
21
0.340342
31
0.292024
12
-0.555088
22
0.349625
32
0.251443
13
-0.555088
23
0.349625
33
0.251443
0
3DFACE
8
0
10
-0.506583
20
0.390268
30
0.281983
11
-0.534513
21
0.402326
31
0.229145
12
-0.555088
22
0.349625
32
0.251443
13
-0.555088
23
0.349625
33
0.251443
0
3DFACE
8
0
10
-0.555088
20
0.349625
30
0.251443
11
-0.601925
21
0.289439
31
0.243414
12
-0.568101
22
0.304807
32
0.276549
13
-0.568101
23
0.304807
33
0.276549
0
3DFACE
8
0
10
-0.534513
20
0.402326
30
0.229145
11
-0.572844
21
0.395145
31
0.180449
12
-0.585056
22
0.345864
32
0.212028
13
-0.585056
23
0.345864
33
0.212028
0
3DFACE
8
0
10
-0.568101
20
0.304807
30
0.276549
11
-0.601925
21
0.289439
31
0.243414
12
-0.586611
22
0.258343
32
0.294999
13
-0.586611
23
0.258343
33
0.294999
0
3DFACE
8
0
10
-0.167785
20
0.686845
30
0.496537
11
-0.199305
21
0.703605
31
0.431051
12
-0.212064
22
0.650609
32
0.465895
13
-0.212064
23
0.650609
33
0.465895
0
3DFACE
8
0
10
-0.167785
20
0.686845
30
0.496537
11
-0.153146
21
0.735840
31
0.468122
12
-0.199305
22
0.703605
32
0.431051
13
-0.199305
23
0.703605
33
0.431051
0
3DFACE
8
0
10
0.000000
20
0.660902
30
0.792572
11
-0.051162
21
0.635805
31
0.736682
12
-0.050858
22
0.599237
32
0.779937
13
-0.050858
23
0.599237
33
0.779937
0
3DFACE
8
0
10
-0.122530
20
0.559910
30
0.704013
11
-0.094825
21
0.605944
31
0.698629
12
-0.128501
22
0.600201
32
0.650121
13
-0.128501
23
0.600201
33
0.650121
0
3DFACE
8
0
10
-0.051162
20
0.635805
30
0.736682
11
-0.041952
21
0.674389
31
0.707487
12
-0.085659
22
0.642058
32
0.673242
13
-0.085659
23
0.642058
33
0.673242
0
3DFACE
8
0
10
-0.041952
20
0.674389
30
0.707487
11
0.000000
21
0.705693
31
0.739210
12
0.000000
22
0.714774
32
0.728599
13
0.000000
23
0.714774
33
0.728599
0
3DFACE
8
0
10
0.000000
20
0.687654
30
0.760494
11
-0.041952
21
0.674389
31
0.707487
12
-0.051162
22
0.635805
32
0.736682
13
-0.051162
23
0.635805
33
0.736682
0
3DFACE
8
0
10
-0.128501
20
0.600201
30
0.650121
11
-0.117094
21
0.647234
31
0.617346
12
-0.154209
22
0.613599
32
0.594635
13
-0.154209
23
0.613599
33
0.594635
0
3DFACE
8
0
10
-0.154209
20
0.613599
30
0.594635
11
-0.144262
21
0.649194
31
0.572523
12
-0.191302
22
0.617644
32
0.532129
13
-0.191302
23
0.617644
33
0.532129
0
3DFACE
8
0
10
-0.063350
20
0.681151
30
0.665514
11
-0.059404
21
0.712199
31
0.637358
12
-0.090908
22
0.680733
32
0.622343
13
-0.090908
23
0.680733
33
0.622343
0
3DFACE
8
0
10
-0.059404
20
0.712199
30
0.637358
11
-0.063350
21
0.681151
31
0.665514
12
-0.033549
22
0.716973
32
0.672630
13
-0.033549
23
0.716973
33
0.672630
0
3DFACE
8
0
10
-0.076417
20
0.722305
30
0.599847
11
-0.090908
21
0.680733
31
0.622343
12
-0.059404
22
0.712199
32
0.637358
13
-0.059404
23
0.712199
33
0.637358
0
3DFACE
8
0
10
-0.281270
20
0.407472
30
0.605312
11
-0.317355
21
0.341322
31
0.613223
12
-0.307826
22
0.346087
32
0.623610
13
-0.307826
23
0.346087
33
0.623610
0
3DFACE
8
0
10
-0.304379
20
0.506647
30
0.470230
11
-0.277083
21
0.498170
31
0.520965
12
-0.270731
22
0.546287
32
0.482099
13
-0.270731
23
0.546287
33
0.482099
0
3DFACE
8
0
10
-0.127391
20
0.964798
30
0.277677
11
-0.111605
21
1.027762
31
0.240801
12
-0.150723
22
0.980231
32
0.228702
13
-0.150723
23
0.980231
33
0.228702
0
3DFACE
8
0
10
0.000000
20
1.079451
30
0.350332
11
-0.044369
21
1.062635
31
0.304096
12
0.000000
22
1.068860
32
0.360188
13
0.000000
23
1.068860
33
0.360188
0
3DFACE
8
0
10
-0.187430
20
1.051345
30
0.107343
11
-0.226522
21
1.017174
31
0.080395
12
-0.208497
22
0.995671
32
0.128147
13
-0.208497
23
0.995671
33
0.128147
0
3DFACE
8
0
10
-0.061930
20
1.082454
30
0.261067
11
-0.085592
21
1.018441
31
0.286997
12
-0.044369
22
1.062635
32
0.304096
13
-0.044369
23
1.062635
33
0.304096
0
3DFACE
8
0
10
-0.052059
20
1.022635
30
0.330820
11
-0.091843
21
0.966924
31
0.327207
12
-0.045342
22
0.997845
32
0.363958
13
-0.045342
23
0.997845
33
0.363958
0
3DFACE
8
0
10
-0.326926
20
0.915988
30
0.023406
11
-0.285025
21
0.926787
31
0.077993
12
-0.317355
22
0.931405
32
0.023140
13
-0.317355
23
0.931405
33
0.023140
0
3DFACE
8
0
10
-0.176482
20
0.855370
30
0.312233
11
-0.135605
21
0.912058
31
0.316820
12
-0.174619
22
0.905192
32
0.265916
13
-0.174619
23
0.905192
33
0.265916
0
3DFACE
8
0
10
0.000000
20
0.975380
30
0.449811
11
-0.054909
21
0.934222
31
0.412328
12
0.000000
22
0.965197
32
0.459871
13
0.000000
23
0.965197
33
0.459871
0
3DFACE
8
0
10
-0.039847
20
1.185942
30
0.199189
11
-0.000000
21
1.209723
31
0.233650
12
-0.000000
22
1.220845
32
0.224059
13
-0.000000
23
1.220845
33
0.224059
0
3DFACE
8
0
10
-0.063966
20
1.311648
30
0.058639
11
-0.033658
21
1.325670
31
0.089729
12
-0.039355
22
1.362345
32
0.052091
13
-0.039355
23
1.362345
33
0.052091
0
3DFACE
8
0
10
-0.063966
20
1.311648
30
0.058639
11
-0.081269
21
1.270183
31
0.068536
12
-0.044881
22
1.280130
32
0.111678
13
-0.044881
23
1.280130
33
0.111678
0
3DFACE
8
0
10
-0.099908
20
1.307530
30
0.010652
11
-0.107499
21
1.233981
31
0.061532
12
-0.081269
22
1.270183
32
0.068536
13
-0.081269
23
1.270183
33
0.068536
0
3DFACE
8
0
10
-0.107499
20
1.233981
30
0.061532
11
-0.099908
21
1.307530
31
0.010652
12
-0.152066
22
1.212397
32
0.014876
13
-0.152066
23
1.212397
33
0.014876
0
3DFACE
8
0
10
-0.144262
20
0.649194
30
0.572523
11
-0.151830
21
0.670766
31
0.537948
12
-0.191302
22
0.617644
32
0.532129
13
-0.191302
23
0.617644
33
0.532129
0
3DFACE
8
0
10
-0.111920
20
0.700773
30
0.568027
11
-0.117094
21
0.647234
31
0.617346
12
-0.090908
22
0.680733
32
0.622343
13
-0.090908
23
0.680733
33
0.622343
0
3DFACE
8
0
10
-0.101281
20
1.076035
30
0.210842
11
-0.053542
21
1.130730
31
0.229009
12
-0.098756
22
1.111178
32
0.182387
13
-0.098756
23
1.111178
33
0.182387
0
3DFACE
8
0
10
-0.098756
20
1.111178
30
0.182387
11
-0.123550
21
1.124839
31
0.134218
12
-0.142029
22
1.079714
32
0.148288
13
-0.142029
23
1.079714
33
0.148288
0
3DFACE
8
0
10
-0.098756
20
1.111178
30
0.182387
11
-0.078663
21
1.150344
31
0.175958
12
-0.123550
22
1.124839
32
0.134218
13
-0.123550
23
1.124839
33
0.134218
0
3DFACE
8
0
10
-0.170369
20
1.100110
30
0.087796
11
-0.142029
21
1.079714
31
0.148288
12
-0.123550
22
1.124839
32
0.134218
13
-0.123550
23
1.124839
33
0.134218
0
3DFACE
8
0
10
-0.053542
20
1.130730
30
0.229009
11
0.000000
21
1.154729
31
0.281910
12
-0.000000
22
1.165646
32
0.272217
13
-0.000000
23
1.165646
33
0.272217
0
3DFACE
8
0
10
0.000000
20
1.143853
30
0.291623
11
-0.061930
21
1.082454
31
0.261067
12
0.000000
22
1.133017
32
0.301357
13
0.000000
23
1.133017
33
0.301357
0
3DFACE
8
0
10
-0.534513
20
0.402326
30
0.229145
11
-0.533182
21
0.444944
31
0.188316
12
-0.572844
22
0.395145
32
0.180449
13
-0.572844
23
0.395145
33
0.180449
0
3DFACE
8
0
10
-0.576099
20
0.437343
30
0.132792
11
-0.575131
21
0.483031
31
0.086990
12
-0.616292
22
0.434745
32
0.076289
13
-0.616292
23
0.434745
33
0.076289
0
3DFACE
8
0
10
-0.364812
20
0.486994
30
0.397623
11
-0.328729
21
0.517658
31
0.421891
12
-0.339683
22
0.559272
32
0.363438
13
-0.339683
23
0.559272
33
0.363438
0
3DFACE
8
0
10
-0.340258
20
0.454947
30
0.466760
11
-0.371431
21
0.429769
31
0.444146
12
-0.367346
22
0.384100
32
0.494890
13
-0.367346
23
0.384100
33
0.494890
0
3DFACE
8
0
10
-0.533279
20
0.340342
30
0.292024
11
-0.507253
21
0.337333
31
0.332630
12
-0.506583
22
0.390268
32
0.281983
13
-0.506583
23
0.390268
33
0.281983
0
3DFACE
8
0
10
-0.558310
20
0.220845
30
0.370064
11
-0.561930
21
0.255242
31
0.332704
12
-0.568860
22
0.215570
32
0.360188
13
-0.568860
23
0.215570
33
0.360188
0
3DFACE
8
0
10
-0.470548
20
0.428697
30
0.297080
11
-0.433752
21
0.488415
31
0.292464
12
-0.485227
22
0.458115
32
0.246026
13
-0.485227
23
0.458115
33
0.246026
0
3DFACE
8
0
10
-0.473139
20
0.375531
30
0.345430
11
-0.507253
21
0.337333
31
0.332630
12
-0.483714
22
0.317884
32
0.385476
13
-0.483714
23
0.317884
33
0.385476
0
3DFACE
8
0
10
-0.281322
20
0.453070
30
0.559733
11
-0.310856
21
0.452035
31
0.514806
12
-0.311092
22
0.401490
32
0.564411
13
-0.311092
23
0.401490
33
0.564411
0
3DFACE
8
0
10
-0.311092
20
0.401490
30
0.564411
11
-0.336537
21
0.331731
31
0.592511
12
-0.326926
22
0.336537
32
0.602857
13
-0.326926
23
0.336537
33
0.602857
0
3DFACE
8
0
10
-0.270731
20
0.546287
30
0.482099
11
-0.244163
21
0.542010
31
0.527749
12
-0.235030
22
0.591897
32
0.490759
13
-0.235030
23
0.591897
33
0.490759
0
3DFACE
8
0
10
-0.328729
20
0.517658
30
0.421891
11
-0.291632
21
0.570624
31
0.425286
12
-0.339683
22
0.559272
32
0.363438
13
-0.339683
23
0.559272
33
0.363438
0
3DFACE
8
0
10
-0.311092
20
0.401490
30
0.564411
11
-0.317355
21
0.341322
31
0.613223
12
-0.281270
22
0.407472
32
0.605312
13
-0.281270
23
0.407472
33
0.605312
0
3DFACE
8
0
10
-0.346189
20
0.326905
30
0.582185
11
-0.339009
21
0.396344
31
0.526279
12
-0.355882
22
0.322059
32
0.571880
13
-0.355882
23
0.322059
33
0.571880
0
3DFACE
8
0
10
-0.676604
20
0.403959
30
0.020284
11
-0.661053
21
0.378094
31
0.069913
12
-0.665646
22
0.418682
32
0.020712
13
-0.665646
23
0.418682
33
0.020712
0
3DFACE
8
0
10
-0.427194
20
0.668900
30
0.118772
11
-0.384570
21
0.712778
31
0.139386
12
-0.424733
22
0.706909
32
0.083302
13
-0.424733
23
0.706909
33
0.083302
0
3DFACE
8
0
10
-0.384570
20
0.712778
30
0.139386
11
-0.342164
21
0.758630
31
0.158010
12
-0.365410
22
0.780295
32
0.100107
13
-0.365410
23
0.780295
33
0.100107
0
3DFACE
8
0
10
-0.417317
20
0.642339
30
0.161244
11
-0.384570
21
0.712778
31
0.139386
12
-0.427194
22
0.668900
32
0.118772
13
-0.427194
23
0.668900
33
0.118772
0
3DFACE
8
0
10
-0.384570
20
0.712778
30
0.139386
11
-0.417317
21
0.642339
31
0.161244
12
-0.374729
22
0.672085
32
0.196027
13
-0.374729
23
0.672085
33
0.196027
0
3DFACE
8
0
10
-0.424733
20
0.706909
30
0.083302
11
-0.465197
21
0.702296
31
0.024977
12
-0.458709
22
0.662770
32
0.076425
13
-0.458709
23
0.662770
33
0.076425
0
3DFACE
8
0
10
-0.495868
20
0.657025
30
0.024793
11
-0.458709
21
0.662770
31
0.076425
12
-0.485604
22
0.672095
32
0.024875
13
-0.485604
23
0.672095
33
0.024875
0
3DFACE
8
0
10
-0.473139
20
0.375531
30
0.345430
11
-0.506583
21
0.390268
31
0.281983
12
-0.507253
22
0.337333
32
0.332630
13
-0.507253
23
0.337333
33
0.332630
0
3DFACE
8
0
10
-0.531621
20
0.280452
30
0.351935
11
-0.546401
21
0.297684
31
0.314358
12
-0.561930
22
0.255242
32
0.332704
13
-0.561930
23
0.255242
33
0.332704
0
3DFACE
8
0
10
-0.051162
20
0.635805
30
0.736682
11
0.000000
21
0.678696
31
0.771166
12
0.000000
22
0.687654
32
0.760494
13
0.000000
23
0.687654
33
0.760494
0
3DFACE
8
0
10
-0.041952
20
0.674389
30
0.707487
11
0.000000
21
0.696653
31
0.749842
12
0.000000
22
0.705693
32
0.739210
13
0.000000
23
0.705693
33
0.739210
0
3DFACE
8
0
10
-0.085659
20
0.642058
30
0.673242
11
-0.128501
21
0.600201
31
0.650121
12
-0.094825
22
0.605944
32
0.698629
13
-0.094825
23
0.605944
33
0.698629
0
3DFACE
8
0
10
-0.117094
20
0.647234
30
0.617346
11
-0.128501
21
0.600201
31
0.650121
12
-0.085659
22
0.642058
32
0.673242
13
-0.085659
23
0.642058
33
0.673242
0
3DFACE
8
0
10
-0.144262
20
0.649194
30
0.572523
11
-0.154209
21
0.613599
31
0.594635
12
-0.117094
22
0.647234
32
0.617346
13
-0.117094
23
0.647234
33
0.617346
0
3DFACE
8
0
10
-0.090908
20
0.680733
30
0.622343
11
-0.085659
21
0.642058
31
0.673242
12
-0.063350
22
0.681151
32
0.665514
13
-0.063350
23
0.681151
33
0.665514
0
3DFACE
8
0
10
-0.277083
20
0.498170
30
0.520965
11
-0.245063
21
0.502191
31
0.567042
12
-0.244163
22
0.542010
32
0.527749
13
-0.244163
23
0.542010
33
0.527749
0
3DFACE
8
0
10
-0.244163
20
0.542010
30
0.527749
11
-0.270731
21
0.546287
31
0.482099
12
-0.277083
22
0.498170
32
0.520965
13
-0.277083
23
0.498170
33
0.520965
0
3DFACE
8
0
10
-0.211779
20
0.893532
30
0.221886
11
-0.174619
21
0.905192
31
0.265916
12
-0.183886
22
0.946203
32
0.212351
13
-0.183886
23
0.946203
33
0.212351
0
3DFACE
8
0
10
-0.242738
20
0.953008
30
0.117251
11
-0.259299
21
0.976212
31
0.069509
12
-0.285025
22
0.926787
32
0.077993
13
-0.285025
23
0.926787
33
0.077993
0
3DFACE
8
0
10
-0.208497
20
0.995671
30
0.128147
11
-0.242738
21
0.953008
31
0.117251
12
-0.212258
22
0.947007
32
0.169153
13
-0.212258
23
0.947007
33
0.169153
0
3DFACE
8
0
10
-0.052059
20
1.022635
30
0.330820
11
-0.044369
21
1.062635
31
0.304096
12
-0.085592
22
1.018441
32
0.286997
13
-0.085592
23
1.018441
33
0.286997
0
3DFACE
8
0
10
0.000000
20
1.068860
30
0.360188
11
-0.052059
21
1.022635
31
0.330820
12
0.000000
22
1.058310
32
0.370064
13
0.000000
23
1.058310
33
0.370064
0
3DFACE
8
0
10
-0.052059
20
1.022635
30
0.330820
11
0.000000
21
1.068860
31
0.360188
12
-0.044369
22
1.062635
32
0.304096
13
-0.044369
23
1.062635
33
0.304096
0
3DFACE
8
0
10
-0.052059
20
1.022635
30
0.330820
11
-0.045342
21
0.997845
31
0.363958
12
0.000000
22
1.047801
32
0.379961
13
0.000000
23
1.047801
33
0.379961
0
3DFACE
8
0
10
-0.180690
20
0.801305
30
0.359957
11
-0.176482
21
0.855370
31
0.312233
12
-0.210848
22
0.795311
32
0.320687
13
-0.210848
23
0.795311
33
0.320687
0
3DFACE
8
0
10
0.000000
20
1.006173
30
0.419753
11
-0.045342
21
0.997845
31
0.363958
12
-0.056533
22
0.962762
32
0.381997
13
-0.056533
23
0.962762
33
0.381997
0
3DFACE
8
0
10
-0.054909
20
0.934222
30
0.412328
11
-0.056533
21
0.962762
31
0.381997
12
-0.098511
22
0.918028
32
0.365201
13
-0.098511
23
0.918028
33
0.365201
0
3DFACE
8
0
10
-0.054909
20
0.934222
30
0.412328
11
0.000000
21
0.985604
31
0.439771
12
-0.056533
22
0.962762
32
0.381997
13
-0.056533
23
0.962762
33
0.381997
0
3DFACE
8
0
10
-0.170369
20
1.100110
30
0.087796
11
-0.134143
21
1.150545
31
0.095672
12
-0.161888
22
1.144726
32
0.059973
13
-0.161888
23
1.144726
33
0.059973
0
3DFACE
8
0
10
-0.033658
20
1.325670
30
0.089729
11
-0.063966
21
1.311648
31
0.058639
12
-0.044881
22
1.280130
32
0.111678
13
-0.044881
23
1.280130
33
0.111678
0
3DFACE
8
0
10
-0.044881
20
1.280130
30
0.111678
11
-0.000000
21
1.322773
31
0.138659
12
-0.033658
22
1.325670
32
0.089729
13
-0.033658
23
1.325670
33
0.089729
0
3DFACE
8
0
10
-0.107499
20
1.233981
30
0.061532
11
-0.152066
21
1.212397
31
0.014876
12
-0.135716
22
1.190107
32
0.058398
13
-0.135716
23
1.190107
33
0.058398
0
3DFACE
8
0
10
-0.034819
20
1.244769
30
0.155489
11
-0.074380
21
1.232261
31
0.110510
12
-0.053445
22
1.215154
32
0.154838
13
-0.053445
23
1.215154
33
0.154838
0
3DFACE
8
0
10
-0.034819
20
1.244769
30
0.155489
11
0.000000
21
1.265738
31
0.185899
12
0.000000
22
1.277064
32
0.176411
13
0.000000
23
1.277064
33
0.176411
0
3DFACE
8
0
10
-0.074380
20
1.232261
30
0.110510
11
-0.081269
21
1.270183
31
0.068536
12
-0.107499
22
1.233981
32
0.061532
13
-0.107499
23
1.233981
33
0.061532
0
3DFACE
8
0
10
-0.044881
20
1.280130
30
0.111678
11
-0.074380
21
1.232261
31
0.110510
12
-0.034819
22
1.244769
32
0.155489
13
-0.034819
23
1.244769
33
0.155489
0
3DFACE
8
0
10
-0.151830
20
0.670766
30
0.537948
11
-0.167785
21
0.686845
31
0.496537
12
-0.191302
22
0.617644
32
0.532129
13
-0.191302
23
0.617644
33
0.532129
0
3DFACE
8
0
10
0.000000
20
0.817355
30
0.613223
11
-0.061526
21
0.765349
31
0.576465
12
0.000000
22
0.807826
32
0.623610
13
0.000000
23
0.807826
33
0.623610
0
3DFACE
8
0
10
0.000000
20
0.779482
30
0.654892
11
-0.038753
21
0.751927
31
0.625726
12
0.000000
22
0.770115
32
0.665361
13
0.000000
23
0.770115
33
0.665361
0
3DFACE
8
0
10
-0.076417
20
0.722305
30
0.599847
11
-0.061526
21
0.765349
31
0.576465
12
-0.111920
22
0.700773
32
0.568027
13
-0.111920
23
0.700773
33
0.568027
0
3DFACE
8
0
10
0.000000
20
0.807826
30
0.623610
11
-0.038753
21
0.751927
31
0.625726
12
0.000000
22
0.798337
32
0.634017
13
0.000000
23
0.798337
33
0.634017
0
3DFACE
8
0
10
-0.061526
20
0.765349
30
0.576465
11
-0.069348
21
0.792177
31
0.536096
12
-0.114978
22
0.734549
32
0.527591
13
-0.114978
23
0.734549
33
0.527591
0
3DFACE
8
0
10
-0.340258
20
0.454947
30
0.466760
11
-0.364812
21
0.486994
31
0.397623
12
-0.371431
22
0.429769
32
0.444146
13
-0.371431
23
0.429769
33
0.444146
0
3DFACE
8
0
10
-0.310856
20
0.452035
30
0.514806
11
-0.339009
21
0.396344
31
0.526279
12
-0.311092
22
0.401490
32
0.564411
13
-0.311092
23
0.401490
33
0.564411
0
3DFACE
8
0
10
-0.178293
20
0.756743
30
0.408654
11
-0.153146
21
0.735840
31
0.468122
12
-0.133620
22
0.785668
32
0.446378
13
-0.133620
23
0.785668
33
0.446378
0
3DFACE
8
0
10
-0.153146
20
0.735840
30
0.468122
11
-0.167785
21
0.686845
31
0.496537
12
-0.114978
22
0.734549
32
0.527591
13
-0.114978
23
0.734549
33
0.527591
0
3DFACE
8
0
10
-0.151830
20
0.670766
30
0.537948
11
-0.144262
21
0.649194
31
0.572523
12
-0.111920
22
0.700773
32
0.568027
13
-0.111920
23
0.700773
33
0.568027
0
3DFACE
8
0
10
-0.151830
20
0.670766
30
0.537948
11
-0.114978
21
0.734549
31
0.527591
12
-0.167785
22
0.686845
32
0.496537
13
-0.167785
23
0.686845
33
0.496537
0
3DFACE
8
0
10
-0.397183
20
0.431469
30
0.403636
11
-0.371431
21
0.429769
31
0.444146
12
-0.364812
22
0.486994
32
0.397623
13
-0.364812
23
0.486994
33
0.397623
0
3DFACE
8
0
10
-0.367346
20
0.384100
30
0.494890
11
-0.401160
21
0.385019
31
0.442931
12
-0.397790
22
0.345624
32
0.485830
13
-0.397790
23
0.345624
33
0.485830
0
3DFACE
8
0
10
-0.346189
20
0.326905
30
0.582185
11
-0.311092
21
0.401490
31
0.564411
12
-0.339009
22
0.396344
32
0.526279
13
-0.339009
23
0.396344
33
0.526279
0
3DFACE
8
0
10
-0.355882
20
0.322059
30
0.571880
11
-0.339009
21
0.396344
31
0.526279
12
-0.365616
22
0.317192
32
0.561596
13
-0.365616
23
0.317192
33
0.561596
0
3DFACE
8
0
10
-0.245585
20
0.856382
30
0.207567
11
-0.211779
21
0.893532
31
0.221886
12
-0.243618
22
0.901574
32
0.166034
13
-0.243618
23
0.901574
33
0.166034
0
3DFACE
8
0
10
-0.243618
20
0.901574
30
0.166034
11
-0.212258
21
0.947007
31
0.169153
12
-0.242738
22
0.953008
32
0.117251
13
-0.242738
23
0.953008
33
0.117251
0
3DFACE
8
0
10
-0.251505
20
1.039894
30
0.020712
11
-0.259299
21
0.976212
31
0.069509
12
-0.226522
22
1.017174
32
0.080395
13
-0.226522
23
1.017174
33
0.080395
0
3DFACE
8
0
10
-0.078663
20
1.150344
30
0.175958
11
-0.098756
21
1.111178
31
0.182387
12
-0.053542
22
1.130730
32
0.229009
13
-0.053542
23
1.130730
33
0.229009
0
3DFACE
8
0
10
-0.123550
20
1.124839
30
0.134218
11
-0.134143
21
1.150545
31
0.095672
12
-0.170369
22
1.100110
32
0.087796
13
-0.170369
23
1.100110
33
0.087796
0
3DFACE
8
0
10
-0.160902
20
1.196613
30
0.015509
11
-0.135716
21
1.190107
31
0.058398
12
-0.152066
22
1.212397
32
0.014876
13
-0.152066
23
1.212397
33
0.014876
0
3DFACE
8
0
10
-0.098392
20
1.172660
30
0.127927
11
-0.074380
21
1.232261
31
0.110510
12
-0.108070
22
1.197465
32
0.092259
13
-0.108070
23
1.197465
33
0.092259
0
3DFACE
8
0
10
-0.161888
20
1.144726
30
0.059973
11
-0.169779
21
1.180849
31
0.016121
12
-0.196653
22
1.133680
32
0.017835
13
-0.196653
23
1.133680
33
0.017835
0
3DFACE
8
0
10
-0.134143
20
1.150545
30
0.095672
11
-0.098392
21
1.172660
31
0.127927
12
-0.108070
22
1.197465
32
0.092259
13
-0.108070
23
1.197465
33
0.092259
0
3DFACE
8
0
10
-0.053542
20
1.130730
30
0.229009
11
-0.039847
21
1.185942
31
0.199189
12
-0.078663
22
1.150344
32
0.175958
13
-0.078663
23
1.150344
33
0.175958
0
3DFACE
8
0
10
-0.078663
20
1.150344
30
0.175958
11
-0.070592
21
1.189223
31
0.153123
12
-0.098392
22
1.172660
32
0.127927
13
-0.098392
23
1.172660
33
0.127927
0
3DFACE
8
0
10
-0.180690
20
0.801305
30
0.359957
11
-0.178293
21
0.756743
31
0.408654
12
-0.148713
22
0.810208
32
0.398807
13
-0.148713
23
0.810208
33
0.398807
0
3DFACE
8
0
10
-0.090711
20
0.812952
30
0.482504
11
-0.113706
21
0.836844
31
0.423920
12
-0.133620
22
0.785668
32
0.446378
13
-0.133620
23
0.785668
33
0.446378
0
3DFACE
8
0
10
-0.150723
20
0.980231
30
0.228702
11
-0.174619
21
0.905192
31
0.265916
12
-0.127391
22
0.964798
32
0.277677
13
-0.127391
23
0.964798
33
0.277677
0
3DFACE
8
0
10
-0.091843
20
0.966924
30
0.327207
11
-0.052059
21
1.022635
31
0.330820
12
-0.085592
22
1.018441
32
0.286997
13
-0.085592
23
1.018441
33
0.286997
0
3DFACE
8
0
10
-0.170369
20
1.100110
30
0.087796
11
-0.214774
21
1.102336
31
0.018876
12
-0.187430
22
1.051345
32
0.107343
13
-0.187430
23
1.051345
33
0.107343
0
3DFACE
8
0
10
-0.178261
20
0.999878
30
0.169333
11
-0.150723
21
0.980231
31
0.228702
12
-0.145919
22
1.036617
32
0.182535
13
-0.145919
23
1.036617
33
0.182535
0
3DFACE
8
0
10
-0.187430
20
1.051345
30
0.107343
11
-0.178261
21
0.999878
31
0.169333
12
-0.145919
22
1.036617
32
0.182535
13
-0.145919
23
1.036617
33
0.182535
0
ENDSEC
0
EOF
